<svg width="498" height="486" viewBox="0 0 498 486" fill="none" xmlns="http://www.w3.org/2000/svg">
<rect x="25" y="82" width="467.603" height="365" rx="16.7918" fill="#2A3695" stroke="#0B1846" stroke-width="10"/>
<path d="M227.916 117.827C227.916 117.817 227.914 117.795 227.911 117.777C227.908 117.758 227.904 117.737 227.9 117.718C227.88 117.629 227.859 117.541 227.832 117.454C227.822 117.421 227.812 117.388 227.8 117.357C227.799 117.352 227.77 117.275 227.76 117.247C227.615 116.922 227.459 116.71 227.255 116.502C227.131 116.376 226.997 116.257 226.855 116.149C226.848 116.144 226.85 116.145 226.847 116.143C226.842 116.14 226.842 116.14 226.827 116.13C226.798 116.11 226.767 116.09 226.738 116.07C226.647 116.011 226.555 115.956 226.46 115.905C226.375 115.859 226.289 115.818 226.202 115.776C226.178 115.765 226.155 115.755 226.131 115.745C226.115 115.738 226.08 115.726 226.073 115.723C225.893 115.659 225.709 115.607 225.522 115.57C225.476 115.561 225.429 115.553 225.382 115.546C225.414 115.551 225.503 115.554 225.359 115.543C225.275 115.538 225.195 115.531 225.111 115.53C225.029 115.529 224.947 115.53 224.865 115.534C224.827 115.537 224.791 115.54 224.755 115.543C224.738 115.547 224.69 115.553 224.666 115.558C224.303 115.63 224.122 115.697 223.818 115.897C223.808 115.906 223.728 115.964 223.709 115.98C223.647 116.033 223.588 116.088 223.532 116.145C223.515 116.162 223.458 116.228 223.444 116.241C223.395 116.304 223.348 116.369 223.305 116.435C223.268 116.493 223.233 116.554 223.199 116.615C223.191 116.631 223.142 116.727 223.128 116.752C223.069 116.892 223.019 117.037 222.982 117.184C222.964 117.251 222.95 117.32 222.935 117.388C222.927 117.428 222.923 117.444 222.921 117.45C222.922 117.455 222.921 117.465 222.918 117.49C222.901 117.651 222.894 117.812 222.899 117.972C222.901 118.064 222.908 118.154 222.917 118.243C222.918 118.255 222.918 118.253 222.918 118.259C222.918 118.258 222.918 118.26 222.918 118.259C222.927 118.309 222.936 118.359 222.947 118.408C222.981 118.573 223.02 118.738 223.072 118.899C223.166 119.189 223.31 119.424 223.527 119.715C223.855 120.158 224.349 120.445 224.893 120.553C224.927 120.551 224.962 120.553 224.996 120.551C224.998 120.551 225 120.551 225.002 120.551C224.987 120.553 224.982 120.553 224.961 120.557C224.979 120.554 224.996 120.552 225.014 120.548C225.037 120.546 225.064 120.542 225.071 120.539C225.078 120.538 225.085 120.537 225.093 120.536C225.17 120.523 225.246 120.51 225.324 120.496C225.499 120.462 225.674 120.418 225.844 120.363C225.919 120.34 225.993 120.311 226.067 120.285C225.851 120.358 226.115 120.263 226.162 120.241C226.324 120.165 226.481 120.079 226.632 119.983C226.698 119.942 226.761 119.897 226.826 119.854C226.842 119.841 226.931 119.778 226.973 119.748C227.005 119.721 227.071 119.667 227.091 119.651C227.166 119.587 227.237 119.52 227.305 119.451C227.358 119.397 227.407 119.342 227.458 119.287C227.453 119.294 227.453 119.295 227.447 119.304C227.452 119.296 227.458 119.288 227.464 119.281C227.475 119.267 227.488 119.248 227.495 119.237C227.505 119.226 227.514 119.213 227.523 119.2C227.614 119.073 227.689 118.938 227.761 118.8C227.774 118.772 227.798 118.722 227.808 118.692C227.833 118.621 227.856 118.551 227.874 118.48C227.883 118.447 227.903 118.335 227.909 118.317C227.916 118.245 227.923 118.175 227.924 118.104C227.927 118.011 227.92 117.92 227.916 117.827ZM228.303 120.904C226.753 122.359 223.764 122.859 222.198 121.17C221.877 120.826 222.032 120.403 222.362 120.235C221.873 119.821 221.52 119.24 221.362 118.656C220.918 117.015 221.518 115.015 223.231 114.225C225.193 113.32 227.494 114.165 228.756 115.715C230.066 117.323 229.805 119.492 228.303 120.904Z" fill="#1A6AFF"/>
<path d="M220.158 46.712C221.248 45.6574 221.642 44.0746 221.174 42.6322C220.707 41.1898 219.459 40.1394 217.957 39.9247L200.164 37.3417C198.87 37.1535 197.75 36.3414 197.17 35.1694L189.216 19.0609C188.875 18.36 188.334 17.7761 187.661 17.3834C187.491 17.6026 187.343 17.8377 187.219 18.0853L178.626 35.4923C178.001 36.7586 176.794 37.6366 175.396 37.8401L156.182 40.6477C154.568 40.8844 153.227 42.0154 152.722 43.5664C152.218 45.1174 152.636 46.8204 153.802 47.9614L167.706 61.5114C168.717 62.4955 169.179 63.9143 168.941 65.3051L165.659 84.4387C165.619 84.6624 165.598 84.8889 165.596 85.1161C166.387 85.2074 167.187 85.0543 167.888 84.6774L183.803 76.3143C184.96 75.7035 186.343 75.7035 187.499 76.3143L203.401 84.6774C204.739 85.3829 206.362 85.2666 207.586 84.3775C208.81 83.4884 209.422 81.9811 209.164 80.4906L206.124 62.7748C205.906 61.4881 206.334 60.1762 207.269 59.2654L220.158 46.712Z" fill="#AAC8F9"/>
<path fill-rule="evenodd" clip-rule="evenodd" d="M194.909 18.0993L203.502 35.5063C204.127 36.7726 205.334 37.6506 206.732 37.8541L225.946 40.6617C227.554 40.9034 228.887 42.0322 229.39 43.5776C229.893 45.123 229.48 46.8199 228.323 47.9613L214.422 61.5114C213.411 62.4954 212.949 63.9143 213.187 65.3051L216.469 84.4387C216.744 86.0474 216.083 87.6731 214.762 88.6324C213.441 89.5917 211.69 89.7183 210.245 88.9589L193.045 79.9255C191.796 79.2691 190.304 79.2691 189.054 79.9255L171.855 88.9589C170.409 89.7183 168.659 89.5917 167.338 88.6324C166.017 87.6731 165.355 86.0474 165.631 84.4387L168.913 65.3051C169.151 63.9143 168.689 62.4954 167.677 61.5114L153.802 47.9613C152.634 46.8206 152.214 45.1163 152.719 43.5639C153.224 42.0115 154.566 40.8799 156.182 40.6441L175.396 37.8365C176.794 37.6331 178.001 36.7551 178.626 35.4887L187.219 18.0993C187.942 16.6367 189.432 15.7109 191.064 15.7109C192.696 15.7109 194.186 16.6367 194.909 18.0993Z" stroke="#1A6AFF" stroke-width="4.69257" stroke-linecap="round"/>
<path d="M314.01 46.712C315.099 45.6574 315.494 44.0746 315.026 42.6322C314.558 41.1898 313.31 40.1394 311.809 39.9247L294.016 37.3417C292.721 37.1535 291.602 36.3414 291.022 35.1694L283.067 19.0609C282.727 18.36 282.186 17.7761 281.512 17.3834C281.343 17.6026 281.195 17.8377 281.07 18.0853L272.477 35.4923C271.853 36.7586 270.645 37.6366 269.248 37.8401L250.033 40.6477C248.419 40.8844 247.079 42.0154 246.574 43.5664C246.069 45.1174 246.488 46.8204 247.653 47.9614L261.557 61.5114C262.569 62.4955 263.031 63.9143 262.793 65.3051L259.511 84.4387C259.471 84.6624 259.45 84.8889 259.447 85.1161C260.238 85.2074 261.038 85.0543 261.74 84.6774L277.655 76.3143C278.811 75.7035 280.195 75.7035 281.351 76.3143L297.252 84.6774C298.59 85.3829 300.213 85.2666 301.437 84.3775C302.661 83.4884 303.273 81.9811 303.016 80.4906L299.976 62.7748C299.758 61.4881 300.185 60.1762 301.12 59.2654L314.01 46.712Z" fill="#AAC8F9"/>
<path fill-rule="evenodd" clip-rule="evenodd" d="M288.761 18.0993L297.354 35.5063C297.978 36.7726 299.186 37.6506 300.583 37.8541L319.798 40.6617C321.405 40.9034 322.738 42.0322 323.241 43.5776C323.744 45.123 323.331 46.8199 322.174 47.9613L308.274 61.5114C307.262 62.4954 306.8 63.9143 307.038 65.3051L310.32 84.4387C310.596 86.0474 309.934 87.6731 308.613 88.6324C307.293 89.5917 305.542 89.7183 304.097 88.9589L286.897 79.9255C285.647 79.2691 284.155 79.2691 282.906 79.9255L265.706 88.9589C264.261 89.7183 262.51 89.5917 261.189 88.6324C259.868 87.6731 259.207 86.0474 259.482 84.4387L262.764 65.3051C263.002 63.9143 262.54 62.4954 261.529 61.5114L247.653 47.9613C246.485 46.8206 246.066 45.1163 246.57 43.5639C247.075 42.0115 248.417 40.8799 250.033 40.6441L269.248 37.8365C270.645 37.6331 271.853 36.7551 272.477 35.4887L281.07 18.0993C281.793 16.6367 283.283 15.7109 284.915 15.7109C286.547 15.7109 288.038 16.6367 288.761 18.0993Z" stroke="#1A6AFF" stroke-width="4.69257" stroke-linecap="round"/>
<path d="M282.805 46.6987C284.25 45.3086 284.773 43.2222 284.153 41.3208C283.533 39.4195 281.877 38.0348 279.887 37.7518L256.291 34.347C254.575 34.0988 253.09 33.0284 252.321 31.4835L241.773 10.2496C241.321 9.32567 240.604 8.55598 239.711 8.03833C239.486 8.32724 239.29 8.63709 239.124 8.96355L227.729 31.9091C226.902 33.5783 225.3 34.7357 223.447 35.0039L197.967 38.7048C195.826 39.0169 194.049 40.5077 193.38 42.5523C192.71 44.5968 193.265 46.8416 194.811 48.3456L213.248 66.207C214.59 67.5042 215.203 69.3745 214.887 71.2079L210.535 96.4294C210.482 96.7242 210.454 97.0228 210.451 97.3223C211.5 97.4427 212.561 97.2409 213.49 96.744L234.595 85.72C236.129 84.9148 237.963 84.9148 239.497 85.72L260.583 96.744C262.358 97.674 264.51 97.5207 266.133 96.3487C267.756 95.1767 268.568 93.1898 268.226 91.225L264.195 67.8724C263.906 66.1763 264.473 64.447 265.713 63.2463L282.805 46.6987Z" fill="#FED101" stroke="white" stroke-width="3.68702"/>
<path fill-rule="evenodd" clip-rule="evenodd" d="M245.606 7.14807L257.001 30.0936C257.829 31.7629 259.43 32.9203 261.283 33.1884L286.764 36.8893C288.895 37.208 290.663 38.6959 291.33 40.733C291.997 42.7702 291.449 45.0071 289.915 46.5116L271.482 64.3731C270.141 65.6702 269.528 67.5405 269.843 69.3739L274.196 94.5954C274.561 96.716 273.684 98.859 271.932 100.124C270.181 101.388 267.859 101.555 265.943 100.554L243.134 88.6463C241.477 87.7809 239.498 87.7809 237.842 88.6463L215.033 100.554C213.117 101.555 210.795 101.388 209.043 100.124C207.292 98.859 206.415 96.716 206.78 94.5954L211.132 69.3739C211.448 67.5405 210.835 65.6702 209.494 64.3731L191.093 46.5116C189.545 45.008 188.988 42.7613 189.658 40.715C190.327 38.6687 192.107 37.177 194.249 36.8662L219.73 33.1653C221.583 32.8971 223.184 31.7397 224.012 30.0704L235.407 7.14807C236.366 5.22007 238.343 3.99976 240.506 3.99976C242.67 3.99976 244.647 5.22007 245.606 7.14807Z" stroke="#1A6AFF" stroke-width="6.19419" stroke-linecap="round"/>
<path d="M250.849 444.619C292.793 444.619 326.795 425.07 326.795 400.955C326.795 376.839 292.793 357.29 250.849 357.29C208.905 357.29 174.902 376.839 174.902 400.955C174.902 425.07 208.905 444.619 250.849 444.619Z" fill="black"/>
<path d="M324.319 400.955C324.239 410.671 318.185 418.757 310.865 424.609C300.942 432.552 288.391 437.055 276.081 439.624C261.201 442.689 245.888 443.021 230.89 440.603C217.953 438.501 204.99 434.41 194.079 426.985C186.234 421.645 178.888 413.812 177.581 404.028C176.319 394.652 181.209 386.121 187.852 379.898C196.838 371.489 208.774 366.503 220.551 363.475C235.124 359.729 250.462 358.913 265.397 360.578C278.797 362.071 292.361 365.754 304.028 372.641C312.467 377.628 320.745 384.885 323.462 394.66C324.034 396.714 324.328 398.835 324.336 400.967C324.361 404.154 329.318 404.163 329.293 400.967C329.205 390.149 322.932 380.785 314.779 374.121C304.209 365.481 290.99 360.389 277.737 357.585C261.762 354.248 245.306 353.91 229.208 356.588C215.602 358.825 201.795 363.341 190.472 371.397C181.76 377.603 174.129 386.365 172.682 397.297C171.295 407.808 176.239 417.634 183.614 424.845C193.032 434.028 205.701 439.62 218.268 442.966C233.85 447.116 250.403 448.079 266.397 446.166C280.693 444.455 295.072 440.54 307.43 432.981C316.713 427.304 325.475 419.017 328.318 408.174C328.935 405.816 329.257 403.391 329.276 400.955C329.302 397.763 324.344 397.759 324.319 400.955Z" fill="black"/>
<path d="M254.969 224.524C277.455 217.25 298.428 224.364 314.544 240.955C332.88 259.838 347.284 284.901 361.382 306.966C359.52 304.048 365.347 287.478 366.07 283.673C367.752 274.928 369.262 266.153 370.456 257.327C371.961 246.169 369.779 234.11 373.706 223.329C378.97 208.887 396.57 210.056 406.997 218.982C417.05 227.584 416.365 240.816 416.71 252.833C417.319 274.024 417.933 295.299 416.18 316.439C414.767 333.43 412.493 353.208 399.854 365.914C388.556 377.266 370.678 380.083 355.063 376.501C347.818 374.819 340.822 371.922 334.793 367.583C316.89 354.692 310.024 331.697 304.289 310.401" fill="white"/>
<path d="M255.155 225.192C263.913 222.808 272.999 221.913 281.963 223.653C290.653 225.335 298.743 229.279 305.744 234.652C313.228 240.396 319.459 247.762 325.274 255.141C331.53 263.075 337.236 271.442 342.735 279.914C348.685 289.084 354.378 298.414 360.251 307.635C361.155 309.052 363.333 307.795 362.513 306.315C361.883 305.179 362.463 303.073 362.673 301.891C363.094 299.507 363.707 297.157 364.355 294.823C365.444 290.838 366.815 286.906 367.584 282.841C369.14 274.625 370.578 266.38 371.704 258.093C372.714 250.659 372.23 243.171 372.73 235.703C373.151 229.321 374.24 221.702 379.378 217.271C383.162 214.016 388.468 213.268 393.253 214.079C398.487 214.981 403.325 217.448 407.128 221.156C411.803 225.781 413.788 232.121 414.498 238.512C415.234 245.164 415.108 251.937 415.289 258.622C415.52 267.162 415.709 275.701 415.709 284.245C415.709 299.722 415.289 315.358 412.989 330.713C411.072 343.554 407.25 357.059 397.285 366.053C387.484 374.882 372.978 377.703 360.184 375.689C346.309 373.507 333.552 366.439 325.034 355.176C316.949 344.488 312.786 331.765 308.779 319.159C307.804 316.094 306.879 313.017 305.966 309.935C305.319 307.752 302.018 308.673 302.557 310.876C305.92 324.617 309.856 338.513 317.134 350.765C324.702 363.538 335.978 373.049 350.35 377.203C363.716 381.05 378.886 380.743 391.365 374.176C404 367.524 410.958 354.835 414.238 341.38C417.992 326.24 418.564 310.086 418.833 294.575C419.153 277.455 418.884 260.182 417.992 243.078C417.656 236.662 416.731 230.044 413.456 224.402C410.449 219.243 405.623 215.374 400.144 213.096C390.381 209.038 377.982 210.657 373.142 221.126C369.88 228.177 369.833 236.338 369.754 243.953C369.665 252.707 368.652 261.154 367.231 269.785C366.184 276.067 365.192 282.349 363.422 288.475C362.03 293.272 360.478 298.145 359.864 303.111C359.684 304.586 359.511 306.285 360.264 307.635L362.526 306.315C351.548 289.135 341.171 271.505 328.621 255.397C317.083 240.619 303.629 226.411 284.708 222.018C274.77 219.726 264.38 220.365 254.797 223.859C253.956 224.158 254.293 225.432 255.167 225.192H255.155Z" fill="black"/>
<path d="M148.636 368.706C144.243 338.185 133.344 304.881 142.679 274.234C148.233 256.003 163.76 243.961 181.032 237.482C197.157 231.423 215.173 229.115 232.151 226.39C261.482 221.656 298.339 218.616 314.266 249.57C322.128 264.853 321.91 282.702 324.18 299.331C327.123 320.749 328.999 342.322 329.89 363.921C329.995 366.536 330.075 369.223 329.209 371.691C328.343 374.159 326.602 376.198 324.811 378.09C312.092 391.545 294.992 400.248 277.186 405.281C259.38 410.314 240.787 411.874 222.3 412.66C207.399 413.295 191.544 413.198 178.867 405.34C169.062 399.268 156.537 382.501 150.222 372.856" fill="white"/>
<path d="M167.452 343.71C163.769 358.682 162.168 374.091 162.693 389.501C156.396 384.409 151.45 377.845 148.292 370.388C147.933 369.659 147.738 368.861 147.72 368.05C147.803 367.274 148.047 366.524 148.435 365.847C151.191 360.347 154.951 355.411 159.522 351.295" fill="black"/>
<path d="M166.687 343.499C161.956 358.144 160.737 374.193 161.221 389.501L163.743 388.459C158.012 383.788 153.405 377.888 150.264 371.195C149.339 369.177 149.032 368.016 150.037 365.985C150.865 364.313 151.797 362.693 152.828 361.138C154.995 357.863 157.526 354.845 160.371 352.14C161.498 351.063 159.825 349.424 158.69 350.458C155.457 353.268 152.592 356.475 150.163 360.002C148.111 363.038 145.294 366.73 146.736 370.514C149.725 378.347 155.233 385.23 161.645 390.544C162.566 391.305 164.206 390.88 164.168 389.506C163.925 381.959 164.15 374.404 164.841 366.885C165.543 359.166 166.943 351.56 168.204 343.924C168.295 343.511 168.046 343.1 167.639 342.988C167.231 342.876 166.807 343.102 166.674 343.504L166.687 343.499Z" fill="black"/>
<path d="M228.897 254.763L236.923 261.78C237.691 262.364 238.331 263.1 238.803 263.941C239.244 264.879 239.244 265.955 239.223 266.989C239.122 288.525 239.02 310.061 238.916 331.596C238.858 344.773 238.79 357.997 236.982 371.048C236.772 372.549 236.562 374.109 236.982 375.563C237.499 377.321 238.895 378.662 240.232 379.915L258.598 397.116L272.746 375.13C274.008 373.162 275.303 371.14 275.832 368.857C276.543 365.775 275.799 362.55 275.054 359.498C267.57 328.548 260.057 297.519 249.016 267.649C248.175 265.345 247.275 262.89 247.788 260.502C248.629 256.604 252.985 253.304 251.66 249.545C250.874 247.312 248.339 246.219 246.001 245.866C241.832 245.249 237.581 246.144 234.014 248.388" fill="black"/>
<path d="M228.447 255.183C230.226 256.865 231.971 258.606 233.77 260.279C235.7 262.074 238.008 263.479 238.092 266.338C238.244 271.564 237.924 276.849 237.895 282.063L237.731 313.109C237.676 323.654 237.731 334.207 237.5 344.748C237.394 349.966 237.197 355.18 236.802 360.381C236.612 362.84 236.381 365.3 236.091 367.751C235.818 370.085 235.166 372.616 235.523 374.975C235.835 376.98 237.016 378.57 238.412 379.974C240.371 381.95 242.474 383.8 244.5 385.705L257.656 398.037C257.953 398.321 258.363 398.456 258.772 398.404C259.18 398.352 259.542 398.118 259.758 397.768L270.387 381.319C273.44 376.585 277.64 371.704 277.46 365.763C277.375 362.992 276.619 360.297 275.942 357.597C275.101 354.192 274.26 350.786 273.419 347.38C271.922 341.351 270.4 335.324 268.853 329.301C265.624 316.759 262.285 304.246 258.472 291.859C256.571 285.676 254.552 279.529 252.413 273.418C251.454 270.685 250.311 267.99 249.47 265.215C248.507 261.965 249.272 259.678 250.971 256.945C252.232 254.897 253.649 252.74 253.321 250.218C253.027 247.955 251.454 246.261 249.445 245.302C244.345 242.864 237.836 244.205 233.194 247.014C231.428 248.086 233.043 250.869 234.817 249.789C237.14 248.333 239.788 247.478 242.524 247.3C244.744 247.173 247.679 247.266 249.411 248.876C251.383 250.714 249.924 253.156 248.848 255.028C247.771 256.899 246.653 258.719 246.396 260.88C246.136 263.104 246.817 265.24 247.553 267.309C248.629 270.34 249.76 273.347 250.815 276.387C252.716 281.867 254.518 287.377 256.222 292.919C263.177 315.426 269.126 338.399 274.142 361.419C274.912 364.955 275.08 368.147 273.385 371.451C271.973 374.176 270.131 376.703 268.474 379.284L257.429 396.464L259.531 396.195L247.893 385.305L242.381 380.146C240.577 378.464 238.261 376.783 238.055 374.104C237.878 371.809 238.551 369.273 238.807 366.986C239.087 364.399 239.319 361.805 239.501 359.203C239.85 354.158 240.018 349.058 240.106 343.983C240.472 322.96 240.388 301.896 240.426 280.86C240.426 277.917 240.405 274.974 240.392 272.031C240.392 269.621 240.745 266.876 240.136 264.526C239.606 262.474 237.928 261.292 236.377 259.993C234.06 258.059 231.676 256.209 229.322 254.321C228.699 253.821 227.821 254.641 228.422 255.217L228.447 255.183Z" fill="black"/>
<path d="M320.914 276.626C321.935 287.495 322.785 298.355 323.937 309.216C325.089 320.076 326.211 330.991 327.006 341.91C327.398 347.309 327.735 352.707 328.015 358.106C328.259 363.059 329.361 368.975 326.565 373.398C324.092 377.308 320.14 380.617 316.617 383.56C313.087 386.495 309.339 389.154 305.403 391.515C288.261 401.871 268.517 406.782 248.802 409.069C238.614 410.259 228.338 410.915 218.087 411.235C208.682 411.533 199.053 411.327 189.972 408.594C180.89 405.861 174.146 400.362 167.868 393.458C161.831 386.797 156.287 379.705 151.281 372.238C150.407 370.934 148.296 372.137 149.158 373.499C153.56 380.344 158.299 387.084 163.613 393.26C168.928 399.437 174.671 405.323 182.05 408.859C190.619 412.963 200.18 414.228 209.594 414.447C220.24 414.691 230.995 414.052 241.595 413.101C262.172 411.26 282.821 407.215 301.299 397.595C309.857 393.208 317.693 387.536 324.534 380.777C327.834 377.464 330.841 373.995 331.442 369.181C332.073 363.963 331.303 358.392 331.021 353.162C330.281 340.174 329.34 327.127 327.658 314.219C326.863 308.076 325.904 301.959 325.026 295.828C324.097 289.383 323.441 282.908 322.432 276.487C322.301 275.647 320.851 275.832 320.93 276.693L320.914 276.626Z" fill="black"/>
<path d="M149.402 368.706C146.715 341.41 137.549 314.089 141.619 286.461C143.402 274.402 147.728 263.424 156.419 254.691C164.627 246.446 175.146 240.93 186.116 237.335C201.126 232.415 216.956 230.296 232.467 227.576C234.039 227.298 233.35 224.978 231.815 225.205C206.167 228.955 177.619 231.785 157.218 249.503C148.132 257.395 142.309 267.603 139.652 279.3C136.498 293.175 137.032 307.513 138.878 321.518C140.98 337.495 144.844 353.107 147.897 368.916C148.061 369.757 149.486 369.576 149.402 368.714V368.706Z" fill="black"/>
<path d="M190.274 234.715C171.93 234.522 154.241 242.75 140.118 254.477C125.995 266.203 115.034 281.213 104.943 296.522C88.928 320.833 74.5863 346.586 66.3538 374.508C63.0995 385.558 60.808 397.213 62.6622 408.565C64.8275 421.818 72.5176 433.662 82.0746 443.097C107.584 468.295 144.991 477.233 180.755 479.807C189.925 480.467 200.588 480.151 206.31 472.953C209.01 469.556 210.073 465.183 211.07 460.962C212.453 455.075 213.769 448.579 210.927 443.244C207.984 437.681 201.471 435.201 195.585 432.947C174.247 424.781 154.05 413.9 135.493 400.572C134.547 399.895 133.547 399.126 133.227 398.003C132.946 397.122 133.01 396.168 133.408 395.333C151.349 362.117 148.876 362.538 168.348 342.453" fill="white"/>
<path d="M190.274 233.992C169.34 233.181 149.805 243.499 134.686 257.298C118.759 271.829 106.612 290.287 95.3609 308.518C83.5881 327.568 73.2323 347.62 66.2991 368.979C62.8177 379.705 59.9124 390.99 60.3833 402.342C60.8037 412.517 64.2935 422.192 69.8183 430.697C80.5356 447.192 97.4379 459.15 115.299 466.857C133.277 474.606 152.652 478.533 172.06 480.483C180.94 481.375 190.896 482.762 199.449 479.441C203.464 477.885 206.882 475.186 208.989 471.389C211.368 467.105 212.411 461.967 213.307 457.19C214.181 452.536 214.534 447.562 212.466 443.16C210.603 439.207 207 436.512 203.182 434.599C198.818 432.409 194.121 430.891 189.618 429.02C184.35 426.829 179.166 424.45 174.061 421.918C163.958 416.894 154.174 411.252 144.764 405.025C142.541 403.556 140.342 402.055 138.167 400.521C137.133 399.794 135.67 399.071 135.014 397.957C134.043 396.3 135.855 394.143 136.662 392.659C138.905 388.488 141.112 384.303 143.284 380.104C146.08 374.752 148.801 369.328 152.021 364.211C154.861 359.809 158.081 355.664 161.645 351.824C164.168 349.016 166.817 346.279 169.449 343.55C170.837 342.116 168.65 339.926 167.259 341.359C159.228 349.651 151.723 357.967 146.097 368.104C142.49 374.609 139.139 381.26 135.645 387.828C133.807 391.276 129.527 396.304 132.626 400.147C133.963 401.804 136.082 402.956 137.802 404.154C140.19 405.836 142.607 407.465 145.054 409.04C154.103 414.904 163.512 420.192 173.225 424.874C178.133 427.254 183.11 429.478 188.155 431.547C192.662 433.409 197.38 434.91 201.748 437.08C206.117 439.25 209.779 442.256 210.868 447.171C211.999 452.246 210.498 457.682 209.275 462.627C208.093 467.365 206.415 472.058 202.24 474.963C198.519 477.557 193.831 478.39 189.383 478.608C180.238 479.062 170.782 477.7 161.751 476.38C152.17 475.02 142.701 472.968 133.416 470.241C115.072 464.775 97.4757 455.946 83.689 442.491C76.6759 435.634 70.5877 427.523 67.0433 418.311C63.0868 408.043 63.0195 397.17 65.1302 386.47C69.3516 364.922 78.7739 344.319 89.3273 325.256C94.6082 315.72 100.343 306.441 106.331 297.329C112.044 288.639 117.956 280.061 124.654 272.102C138.071 256.125 154.805 242.876 175.277 237.566C180.181 236.306 185.212 235.601 190.274 235.464C190.674 235.464 190.997 235.14 190.997 234.741C190.997 234.341 190.674 234.017 190.274 234.017V233.992Z" fill="black"/>
<path d="M263.572 137.271C267.356 150.186 270.121 163.379 271.842 176.726C272.612 182.68 273.167 188.798 271.889 194.65C270.61 200.503 267.2 206.133 262.004 208.462C258.64 209.963 254.385 210.295 252.405 213.558C251.4 215.215 251.248 217.275 251.143 219.243L250.096 236.128C249.878 239.618 249.571 243.368 247.464 246.055C244.588 249.73 239.505 250.1 235.011 250.188C224.407 250.394 213.147 250.415 204.107 244.499C203.106 243.843 202.097 243.061 201.656 241.905C201.151 240.581 201.505 239.088 201.841 237.701C206.045 220.504 207.475 202.244 203.649 184.942C201.584 175.717 198.095 166.926 196.224 157.676C194.353 148.426 194.205 138.272 198.566 130.022C205.083 117.69 219.256 112.687 231.601 110.488C234.847 109.845 238.158 109.589 241.464 109.727C247.25 110.084 253.738 112.519 256.735 118.161C259.679 123.699 260.847 130.178 263.32 135.955" fill="#F7F6F8"/>
<path d="M262.765 137.494C266.288 150.63 268.874 164.001 270.501 177.504C271.788 188.255 271.939 203.509 259.464 207.714C254.89 209.257 250.71 210.85 249.794 216.182C248.789 222.152 248.898 228.476 248.533 234.518C248.36 237.289 248.335 240.194 247.355 242.83C246.296 245.689 243.992 247.27 241.095 247.96C236.091 249.162 230.297 248.737 225.197 248.527C219.311 248.283 213.261 247.455 207.921 244.81C206.679 244.25 205.501 243.557 204.406 242.746C202.774 241.434 202.959 240.013 203.388 238.121C204.158 234.757 204.915 231.394 205.491 228.005C207.656 215.442 208.182 202.58 206.18 189.958C202.795 168.574 185.939 140.147 206.752 122.433C215.375 115.096 227.859 111.854 238.98 111.678C244.841 111.581 251.223 112.657 254.755 117.884C258.501 123.421 259.334 130.602 262.176 136.602C262.807 137.939 265.094 136.993 264.581 135.589C262.386 129.556 261.125 123.051 258.068 117.362C255.579 112.737 250.862 109.937 245.917 108.533C239.787 106.792 233.888 108.188 227.838 109.512C222.75 110.577 217.81 112.25 213.122 114.495C203.119 119.406 195.698 127.975 193.949 139.18C191.847 152.605 196.623 165.424 200.235 178.131C204.217 192.119 205.104 206.452 203.313 220.874C202.854 224.553 202.228 228.211 201.475 231.839C200.861 234.783 199.419 238.176 199.814 241.216C200.168 243.974 202.51 245.534 204.746 246.812C207.37 248.293 210.175 249.424 213.092 250.175C219.08 251.74 225.353 251.937 231.508 251.882C236.613 251.836 242.642 252.16 246.91 248.851C251.736 245.092 251.56 238.436 251.913 232.899L252.577 222.043C252.758 219.032 252.38 215.009 255.1 212.969C257.114 211.452 259.843 211.069 262.134 210.123C264.581 209.106 266.744 207.512 268.441 205.477C272.179 201.033 273.789 195.336 274.117 189.622C274.538 182.667 273.276 175.583 272.12 168.746C270.896 161.598 269.408 154.476 267.495 147.471C266.545 143.973 265.52 140.494 264.421 137.035C264.098 136.014 262.525 136.434 262.807 137.481L262.765 137.494Z" fill="black"/>
<path d="M235.418 158.479C234.27 158.479 233.61 159.652 233.778 160.686C233.877 161.228 234.196 161.705 234.658 162.004C235.121 162.304 235.686 162.399 236.221 162.267C236.789 162.146 237.286 161.804 237.601 161.316C237.917 160.829 238.025 160.236 237.903 159.668C237.575 158.457 236.024 157.604 234.922 158.407C234.382 158.739 234.197 159.436 234.502 159.992C234.828 160.537 235.529 160.724 236.083 160.413C236.002 160.453 235.912 160.474 235.822 160.471C235.662 160.438 235.628 160.434 235.717 160.471C235.973 160.518 235.691 160.442 235.763 160.471C235.834 160.501 235.818 160.501 235.708 160.425C235.797 160.522 235.792 160.513 235.708 160.404L235.666 160.291C235.7 160.421 235.7 160.404 235.666 160.249C235.696 160.101 235.7 160.068 235.666 160.156C235.633 160.244 235.666 160.211 235.7 160.08C235.544 160.324 235.818 159.879 235.666 160.127C235.78 160.047 235.788 160.043 235.666 160.127L235.591 160.173C235.721 160.122 235.725 160.118 235.591 160.173C235.456 160.228 235.477 160.198 235.565 160.173C235.654 160.148 235.645 160.173 235.54 160.173C235.599 160.164 235.659 160.177 235.708 160.211H235.679C235.784 160.299 235.792 160.303 235.708 160.211L235.78 160.299C235.725 160.194 235.729 160.207 235.78 160.333C235.759 160.253 235.742 160.173 235.725 160.093C235.771 160.341 235.725 160.093 235.725 160.043C235.725 160.261 235.725 160.043 235.75 159.988C235.691 160.181 235.771 159.988 235.792 159.925C235.835 159.859 235.882 159.797 235.935 159.74C235.881 159.799 235.889 159.795 235.935 159.74C236.141 159.527 236.201 159.212 236.088 158.938C235.975 158.665 235.71 158.484 235.414 158.479H235.418Z" fill="black"/>
<path d="M255.407 153.98C254.255 153.959 253.599 155.153 253.763 156.187C253.862 156.729 254.18 157.206 254.642 157.506C255.105 157.805 255.671 157.9 256.206 157.768C256.773 157.647 257.27 157.305 257.585 156.818C257.901 156.33 258.01 155.737 257.887 155.17C257.564 153.959 256.012 153.105 254.906 153.908C254.37 154.243 254.186 154.937 254.486 155.493C254.814 156.039 255.516 156.225 256.071 155.914C255.99 155.954 255.901 155.974 255.81 155.973C255.651 155.939 255.617 155.935 255.705 155.973C255.957 156.019 255.676 155.943 255.751 155.973C255.827 156.002 255.806 156.002 255.693 155.926C255.785 156.023 255.781 156.015 255.693 155.905L255.651 155.792C255.684 155.922 255.684 155.905 255.651 155.75C255.68 155.603 255.68 155.569 255.651 155.657C255.621 155.746 255.651 155.712 255.688 155.582C255.529 155.826 255.802 155.38 255.651 155.628C255.768 155.548 255.773 155.544 255.651 155.628L255.575 155.674C255.705 155.624 255.714 155.619 255.596 155.674C255.478 155.729 255.482 155.699 255.571 155.674C255.659 155.649 255.651 155.674 255.545 155.674C255.604 155.665 255.664 155.679 255.714 155.712C255.785 155.754 255.777 155.746 255.68 155.712C255.785 155.8 255.798 155.804 255.714 155.712L255.785 155.796C255.73 155.695 255.73 155.708 255.785 155.834L255.735 155.594C255.781 155.842 255.735 155.594 255.735 155.544C255.735 155.762 255.735 155.544 255.76 155.489C255.701 155.683 255.76 155.489 255.802 155.426C255.819 155.379 255.84 155.334 255.865 155.292C255.815 155.35 255.819 155.346 255.865 155.292C256.071 155.079 256.131 154.764 256.018 154.49C255.905 154.216 255.64 154.036 255.344 154.03L255.407 153.98Z" fill="black"/>
<path d="M249.983 156.01C251.089 161.897 255.34 166.375 254.528 172.623C254.368 173.884 256.269 173.985 256.63 172.904C258.733 166.698 252.846 161.207 251.236 155.666C251.174 155.44 250.997 155.265 250.771 155.206C250.545 155.146 250.305 155.212 250.141 155.378C249.976 155.544 249.913 155.785 249.975 156.01H249.983Z" fill="black"/>
<path d="M238.349 180.22C239.074 182.716 241.143 184.591 243.697 185.068C244.126 185.164 244.573 185.01 244.852 184.67C245.131 184.329 245.194 183.861 245.016 183.459C244.837 183.057 244.448 182.79 244.008 182.768C242.152 182.518 240.56 181.32 239.804 179.606C239.425 178.765 238.101 179.367 238.353 180.22H238.349Z" fill="black"/>
<path d="M230.974 154.661V154.425L230.654 155.191C231.525 154.459 233.278 154.089 234.392 153.908C234.95 153.835 235.512 153.8 236.074 153.803C236.977 153.812 237.851 153.48 238.521 152.874C239.623 151.999 239.198 150.082 238.101 149.46C235.998 148.291 233.085 149.838 231.289 151.142C230.221 151.903 227.64 154.013 229.343 155.346C229.969 155.842 230.995 155.569 230.995 154.661H230.974Z" fill="black"/>
<path d="M259.763 145.97C258.661 145.167 257.597 144.137 256.201 143.918C254.806 143.7 252.972 144.158 252.043 145.285C250.508 147.139 251.959 149.636 254.33 149.216C256.012 148.922 257.559 148.018 259.267 147.803C259.703 147.79 260.08 147.493 260.194 147.071C260.309 146.649 260.133 146.202 259.763 145.97Z" fill="black"/>
<path d="M220.009 153.492L220.278 161.838C219.984 158.933 216.561 157.175 213.681 157.633C212.655 157.769 211.693 158.208 210.919 158.895C206.689 162.956 211.2 172.917 216.843 172.984C216.62 172.984 215.716 178.295 215.476 178.829C213.694 182.802 207.706 184.681 203.62 184.917C194.559 169.965 185.83 156.212 188.483 138.932C189.48 132.41 196.207 121.479 201.614 117.627C203.241 116.471 205.217 115.592 207.189 115.899C207.625 116.016 208.078 116.05 208.526 116C209.367 115.807 209.788 114.886 210.313 114.184C211.318 112.813 212.966 112.081 214.556 111.497C229.032 106.031 245.156 107.04 259.62 113.444C263.345 115.092 266.734 116.58 267.217 121.012C267.861 126.898 266.183 130.968 263.32 135.972C262.105 133.6 258.695 122.341 257.656 119.881C257.9 120.465 251.577 124.132 250.904 124.506C246.724 126.842 242.236 128.577 237.571 129.661C230.003 131.443 221.977 130.787 214.568 133.306C216.561 135.564 219.319 144.179 219.193 147.181C219.067 149.952 219.34 150.305 219.614 153.067" fill="black"/>
<path d="M219.273 153.492C219.302 156.28 219.387 159.055 219.147 161.838H221.413C221.258 158.542 218.403 156.141 215.237 155.737C211.63 155.22 208.225 157.543 207.391 161.09C205.974 166.711 210.839 174.368 216.843 174.603L215.716 171.891C214.219 173.438 214.833 176.55 213.988 178.438C212.441 181.927 207 183.147 203.62 183.378L204.978 184.156C199.465 175.007 193.495 165.727 190.871 155.254C189.555 150.011 189.093 144.297 190.098 138.953C190.867 134.878 192.915 131.035 195.11 127.563C197.304 124.09 200.243 119.738 204.158 117.985C206.226 117.055 208.53 118.3 210.317 116.778C211.158 116.051 211.579 114.966 212.487 114.28C213.614 113.439 215.077 112.994 216.389 112.54C227.236 108.756 238.849 108.823 249.874 111.808C253.091 112.688 256.237 113.813 259.283 115.172C261.201 116.013 263.463 116.917 264.678 118.729C266.179 120.966 265.826 124.666 265.267 127.163C264.632 130.014 263.299 132.595 261.878 135.122H264.766C262.323 130.178 261.192 124.582 259.153 119.465C258.539 117.93 256.096 117.997 256.105 119.885C256.105 119.301 256.752 119.174 256.181 119.305C256.084 119.33 255.899 119.549 255.811 119.603C255.319 119.906 254.856 120.263 254.373 120.579C253.351 121.239 252.304 121.865 251.257 122.479C248.17 124.284 244.891 125.738 241.481 126.814C232.543 129.631 222.981 128.698 214.089 131.582C212.722 132.003 212.407 133.533 213.294 134.584C215.178 136.867 216.027 140.441 216.78 143.233C217.646 146.428 217.709 149.809 218.138 153.088C218.373 154.879 221.174 154.985 221.035 153.088C220.749 149.254 221.035 145.55 220.072 141.791C219.231 138.473 218.05 134.727 215.838 132.045L215.043 135.047C220.122 133.398 225.391 133.1 230.663 132.524C235.777 132.024 240.794 130.8 245.564 128.891C248.607 127.614 251.539 126.086 254.331 124.325C255.722 123.484 259.233 121.903 259.208 119.893L256.16 120.314C258.363 125.696 259.313 131.603 261.878 136.838C262.437 137.977 264.178 137.872 264.766 136.838C267.562 131.914 269.555 126.789 268.916 121.033C268.353 115.945 264.438 113.717 260.137 111.842C248.575 106.796 235.864 105.064 223.423 107.385C220.252 107.971 217.141 108.842 214.127 109.988C212.984 110.38 211.89 110.9 210.864 111.539C209.825 112.241 209.342 113.385 208.43 114.116C207.647 114.739 205.907 114.213 204.801 114.44C203.467 114.748 202.204 115.307 201.08 116.088C199.282 117.349 197.669 118.855 196.287 120.562C193.064 124.367 190.449 128.647 188.534 133.251C186.486 138.208 186.074 143.649 186.558 148.959C187.794 162.574 195.316 174.376 202.266 185.758C202.546 186.239 203.062 186.534 203.62 186.531C207.74 186.224 212.373 184.95 215.283 181.835C216.298 180.759 216.985 179.415 217.263 177.962C217.44 177.155 217.612 176.352 217.793 175.549C217.873 175.183 217.991 174.817 218.045 174.447C218.121 173.968 218.546 173.606 217.965 174.153C219.008 173.14 218.159 171.534 216.843 171.441C213.185 171.189 211.398 166.787 211.377 163.629C211.377 161.888 211.818 160.354 213.618 159.727C215.775 158.975 218.516 159.841 219.193 162.153C219.614 163.587 221.594 162.961 221.38 161.552C220.959 158.886 220.9 156.195 220.753 153.509C220.703 152.567 219.273 152.554 219.281 153.509L219.273 153.492Z" fill="black"/>
<path d="M215.358 164.529C216.128 164.811 216.355 165.849 216.523 166.543C216.767 167.535 218.327 167.111 218.053 166.122C217.683 164.76 217.095 163.44 215.531 163.28C214.778 163.204 214.736 164.298 215.363 164.542L215.358 164.529Z" fill="black"/>
<path d="M237.487 241.161L204.885 228.017C204.489 227.901 204.135 227.671 203.868 227.357C203.633 226.938 203.559 226.448 203.657 225.978C203.811 224.436 204.204 222.927 204.822 221.505C198.936 222.741 194.428 227.391 190.854 232.23C189.677 233.816 188.5 235.678 188.845 237.621C189.063 238.861 189.866 239.904 190.669 240.867C199.044 250.882 210.013 258.398 222.376 262.591C223.57 263.012 224.831 263.369 226.063 263.134C227.93 262.776 229.242 261.153 230.428 259.669C232.336 257.276 234.343 254.969 236.449 252.749C237.357 251.794 238.311 250.831 239.518 250.306C242.07 249.2 245.059 250.306 247.33 251.916C249.6 253.526 251.534 255.633 254.024 256.869C254.915 257.29 255.928 257.634 256.891 257.399C257.716 257.126 258.462 256.654 259.061 256.024C262.05 253.358 265.229 250.365 265.838 246.404C266.221 243.927 265.523 241.417 264.636 239.075C261.836 231.733 257.159 225.254 251.072 220.285L249.949 233.319C249.84 234.556 249.71 235.842 248.97 236.86C248.335 237.701 247.347 238.222 246.392 238.693L239.905 241.909" fill="white"/>
<path d="M237.882 240.488L219.117 232.399C216.174 231.137 213.277 229.838 210.33 228.615C209.068 228.089 206.613 227.589 205.591 226.668C205.124 226.626 204.977 226.39 205.15 225.966C205.208 225.457 205.301 224.953 205.427 224.456C205.639 223.579 205.921 222.72 206.268 221.887C206.718 220.769 205.427 219.827 204.439 220.058C199.297 221.265 195.189 224.662 191.825 228.636C188.701 232.357 185.548 236.532 189.025 241.094C195.42 249.503 204.582 256.23 214.072 260.725C216.444 261.844 218.878 262.826 221.362 263.668C223.772 264.484 226.168 265.005 228.434 263.533C230.625 262.104 232.109 259.568 233.774 257.605C235.506 255.561 237.794 252.114 240.451 251.298C246.136 249.549 250.016 257.445 255.079 258.614C257.551 259.186 259.233 257.617 260.919 256.091C262.714 254.447 264.488 252.673 265.703 250.545C268.798 245.122 266.427 239.096 263.824 233.98C260.936 228.331 256.921 223.334 252.026 219.297C251.634 218.93 251.064 218.827 250.568 219.033C250.072 219.238 249.743 219.715 249.726 220.252C249.348 224.603 249.079 228.985 248.591 233.324C248.465 234.421 248.423 235.544 247.586 236.389C246.905 237.074 245.829 237.469 244.979 237.894L239.215 240.753C237.663 241.523 239.026 243.843 240.573 243.074C242.919 241.914 245.341 240.837 247.632 239.572C249.314 238.642 250.508 237.444 250.996 235.544C251.526 233.395 251.496 231.028 251.686 228.816L252.43 220.239L250.134 221.189C253.874 224.276 257.092 227.946 259.662 232.058C262.142 236.044 265.497 241.829 264.446 246.698C263.984 248.847 262.63 250.672 261.154 252.244C260.494 252.95 259.792 253.619 259.081 254.271C257.374 255.843 256.374 256.65 254.078 255.44C250.142 253.367 247.62 249.381 242.94 248.712C238.26 248.044 235.464 251.882 232.715 254.981C231.197 256.697 229.843 258.593 228.258 260.245C225.802 262.802 223.04 261.477 220.185 260.367C211.473 256.976 203.524 251.885 196.799 245.391C194.863 243.572 193.064 241.613 191.418 239.53C189.185 236.607 191.119 234.198 193.074 231.751C196.265 227.757 200.113 224.154 205.225 222.972L203.396 221.126C202.501 223.325 200.937 227.433 203.569 229.056C204.977 229.935 206.831 230.406 208.37 231.024C210.309 231.806 212.268 232.533 214.223 233.269L237.281 241.93C238.101 242.237 238.693 240.854 237.882 240.505V240.488Z" fill="black"/>
<path d="M118.208 392.844C128.16 398.541 137.549 405.63 147.926 410.503C148.452 410.763 149.09 410.571 149.386 410.065C149.682 409.558 149.537 408.909 149.053 408.577C144.268 404.936 138.89 401.821 133.647 398.907C128.808 396.199 123.922 393.576 118.709 391.662C118.011 391.402 117.582 392.503 118.208 392.848V392.844Z" fill="black"/>
<path d="M195.479 473.529C193.825 465.792 194.136 457.763 196.383 450.177C197.308 447.074 198.65 443.933 201.176 441.907C203.359 440.158 206.167 439.447 208.774 438.425C213.504 436.563 217.713 433.584 221.043 429.743C224.642 425.576 227.947 420.001 233.413 419.581C234.182 419.522 235.031 419.606 235.574 420.148C235.997 420.662 236.241 421.3 236.268 421.965C236.839 426.397 236.074 430.899 234.069 434.894C232.875 437.252 230.2 439.666 227.917 438.333C232.849 438.711 238.008 437.143 242.633 438.917C248.213 441.058 250.937 447.217 253.094 452.792C253.435 453.671 253.78 454.596 253.637 455.525C253.447 456.736 252.447 457.682 251.353 458.233C247.956 459.944 243.281 458.233 241.813 454.705C243.495 458.347 248.541 460.52 248.234 464.527C248.007 467.344 244.807 469.207 242.003 468.841C239.198 468.475 236.869 466.478 235.107 464.267C236.873 467.681 241.389 469.762 241.473 473.609C241.532 476.203 239.45 478.297 237.436 479.916C235.637 481.379 233.703 482.783 231.453 483.355C229.204 483.927 226.572 483.494 225.05 481.745C224.565 481.226 224.269 480.56 224.209 479.853C224.133 477.986 226.896 476.805 228.195 478.146C222.935 479.651 217.414 481.165 212.07 480.013C207.832 479.096 204.002 476.548 199.684 476.153C198.721 476.06 197.674 476.06 196.896 475.476C196.118 474.891 195.971 473.449 196.871 473.084" fill="#F7F6F8"/>
<path d="M196.249 473.319C194.802 465.242 195.29 456.375 198.208 448.655C199.667 444.795 201.992 442.378 205.814 440.885C209.199 439.565 212.483 438.388 215.522 436.336C218.386 434.371 220.943 431.993 223.112 429.281C225.037 426.918 226.87 424.273 229.385 422.486C230.419 421.754 232.66 420.384 234.01 420.863C235.784 421.49 235.191 425.652 235.036 427.115C234.796 429.342 234.198 431.516 233.266 433.552C232.555 435.083 230.743 438.144 228.607 437.16L227.93 439.683C231.979 439.931 236.158 438.909 240.174 439.683C243.886 440.389 246.518 442.929 248.41 446.074C249.238 447.48 249.973 448.939 250.609 450.442C251.311 452.069 252.955 454.781 251.581 456.328C249.058 459.141 244.391 456.795 243.075 454.012L240.598 455.458C241.401 457.001 242.587 458.262 243.811 459.524C245.034 460.785 246.909 462.353 246.754 464.321C246.59 466.474 244.063 467.546 242.162 467.302C239.64 466.983 237.735 465.036 236.205 463.173C235.074 461.794 232.971 463.556 233.795 465.032C235.898 468.791 242.553 472.079 238.521 476.804C236.739 478.907 234.043 481.009 231.374 481.774C230.109 482.186 228.74 482.136 227.51 481.631C226.934 481.371 226.126 480.938 225.95 480.265C225.807 479.722 226.332 478.701 227.064 479.298L227.77 476.632C222.346 478.146 216.708 479.617 211.129 478.011C208.804 477.338 206.63 476.237 204.326 475.488C203.117 475.105 201.873 474.839 200.613 474.694C200.273 474.652 197.123 474.395 197.699 473.92C198.759 473.046 197.405 471.469 196.278 472.079C194.218 473.193 194.79 476.031 196.657 477.032C197.872 477.679 199.369 477.62 200.68 477.914C202.542 478.408 204.362 479.045 206.125 479.819C209.586 481.202 212.916 482.266 216.683 482.123C220.761 481.968 224.726 480.828 228.62 479.693C229.667 479.386 230.301 477.809 229.322 477.027C226.286 474.601 221.442 477.338 222.952 481.291C224.604 485.613 230.314 485.76 233.884 484.137C237.743 482.371 243.104 478.318 243.033 473.601C242.97 469.127 238.408 466.983 236.444 463.485L234.035 465.343C237.47 469.497 244.757 473.176 248.713 467.395C252.56 461.782 245.232 458.199 243.066 453.974C242.225 452.317 239.812 453.772 240.59 455.42C242.442 459.184 246.7 461.108 250.748 460.012C252.695 459.431 254.616 457.989 255.041 455.904C255.503 453.612 253.981 450.993 253.098 448.958C251.299 444.816 248.797 440.528 244.689 438.32C239.455 435.503 233.535 437.29 227.922 436.987C226.639 436.916 226.017 438.938 227.24 439.51C234.149 442.63 237.277 431.522 237.685 426.779C237.912 424.138 238.307 419.211 234.931 418.395C232.307 417.747 229.334 419.236 227.341 420.804C224.722 422.869 222.809 425.631 220.694 428.171C218.306 431.074 215.415 433.523 212.159 435.402C208.816 437.307 204.931 438.03 201.647 440.027C198.872 441.709 197.144 444.421 195.992 447.402C192.763 455.744 192.675 465.141 194.697 473.769C194.937 474.778 196.409 474.341 196.232 473.348L196.249 473.319Z" fill="black"/>
<path d="M276.367 297.355C286.335 297.45 296.268 296.146 305.874 293.482C307.417 293.062 306.761 290.648 305.214 291.081C295.81 293.734 286.129 295.286 276.367 295.706C275.315 295.753 275.303 297.342 276.367 297.355Z" fill="black"/>
<path d="M242.966 214.79C248.234 214.412 254.007 213.024 258.678 210.501C259.939 209.824 259.077 207.705 257.694 208.172C252.716 209.854 247.864 212.044 242.772 213.373C242.007 213.571 242.137 214.849 242.966 214.79Z" fill="black"/>
<path d="M240.262 275.222C243.504 273.86 246.602 272.18 249.512 270.206C250.5 269.542 249.537 267.919 248.579 268.612C245.779 270.629 242.827 272.424 239.749 273.982C239.076 274.322 239.556 275.52 240.27 275.243L240.262 275.222Z" fill="#FFD000"/>
<path d="M237.718 262.962C241.41 261.162 244.952 259.073 248.314 256.714C249.226 256.074 248.339 254.561 247.439 255.217C244.112 257.635 240.597 259.783 236.928 261.641C236.045 262.091 236.823 263.39 237.701 262.962H237.718Z" fill="#FFD000"/>
<path d="M238.744 288.58C240.161 290.312 243.79 287.562 245.051 286.789C248.038 284.99 250.77 282.8 253.174 280.276C253.944 279.468 252.754 278.258 251.951 279.052C250.114 280.933 248.119 282.654 245.989 284.194C245.328 284.661 240.308 288.336 239.644 287.68C239.051 287.091 238.235 287.957 238.744 288.576V288.58Z" fill="#FFD000"/>
<path d="M239.139 307.387C245.324 303.018 252.977 300.802 258.11 295.004C258.834 294.184 257.623 292.969 256.904 293.798C251.938 299.516 244.467 301.874 238.5 306.293C237.857 306.769 238.467 307.862 239.139 307.387Z" fill="#FFD000"/>
<path d="M239.564 327.262C243.655 325.29 247.443 322.813 251.173 320.232C254.902 317.65 258.741 315.279 262.222 312.457C262.975 311.843 261.999 310.616 261.188 311.12C253.544 315.834 246.981 322.052 238.904 326.143C238.151 326.522 238.811 327.623 239.555 327.262H239.564Z" fill="#FFD000"/>
<path d="M239.859 349.083C241.839 346.771 244.576 345.539 247.275 344.261C249.975 342.982 252.661 341.822 255.302 340.476C259.927 338.147 264.274 335.267 267.318 330.987C267.983 330.058 266.478 329.2 265.801 330.095C262.399 334.699 257.434 337.579 252.371 340.031C247.805 342.238 242.205 344.05 238.959 348.167C238.467 348.793 239.316 349.693 239.859 349.062V349.083Z" fill="#FFD000"/>
<path d="M236.478 374.298C243.396 370.707 250.206 366.923 256.908 362.946C260.137 361.017 263.332 359.034 266.494 356.996C268.807 355.508 272.233 354.007 273.083 351.152C273.368 350.185 271.851 349.47 271.401 350.45C270.11 353.309 266.023 355.033 263.484 356.66C260.431 358.622 257.355 360.546 254.255 362.433C248.175 366.133 241.996 369.666 235.717 373.032C234.876 373.482 235.62 374.739 236.461 374.294L236.478 374.298Z" fill="#FFD000"/>
<path d="M249.617 387.992C254.692 387.572 259.422 383.821 263.723 381.374L267.583 379.175C268.672 378.557 270.026 378.027 270.972 377.191C271.918 376.354 271.998 375.088 270.879 374.403C269.954 373.823 269.168 375.244 270.038 375.849C269.643 375.568 265.901 378.166 265.321 378.498L260.069 381.509C256.882 383.338 253.342 386.096 249.621 386.52C248.696 386.621 248.667 388.072 249.621 387.992H249.617Z" fill="#FFD000"/>
<path d="M386.681 231.903C382.031 230.402 378.272 226.769 375.892 222.497C373.512 218.225 372.444 213.344 371.99 208.479C371.641 204.754 371.662 200.911 372.987 197.4C374.101 194.457 377.376 191.598 380.063 193.195C383.427 195.218 381.043 201.016 383.544 204.056C387.569 195.593 390.356 186.596 391.819 177.34C392.088 175.658 392.458 173.699 394.06 172.917C395.421 172.303 397.023 172.659 397.995 173.792C399.841 175.835 399.631 178.547 399.391 181.07L398.101 194.478C402.108 190.093 404.113 184.299 406.148 178.719C407.052 176.23 408.713 173.253 411.391 173.636C412.425 173.803 413.331 174.419 413.868 175.318C414.919 177 414.797 178.988 414.503 180.859C413.603 186.523 411.202 191.821 408.826 197.038C410.789 193.919 412.873 190.872 415.079 187.898C416.062 186.565 417.328 183.887 419.249 183.773C427.553 183.285 417.362 203.64 416.47 205.553C413.426 212.103 411.643 219.323 407.405 225.171C403.167 231.02 395.288 235.22 388.699 232.251" fill="white"/>
<path d="M387.001 231.356C377.116 226.903 373.517 216.405 373.075 206.23C372.962 203.61 373.105 200.94 373.937 198.434C374.585 196.488 377.23 192.548 379.681 194.474C381.136 195.626 380.858 198.178 380.997 199.83C381.144 201.567 381.417 203.257 382.481 204.691C382.973 205.363 384.163 205.616 384.613 204.691C388.507 196.483 391.267 187.784 392.816 178.833C393.118 177.05 393.472 172.736 396.39 174.094C398.61 175.129 398.383 178.471 398.219 180.447C397.836 185.131 397.323 189.811 396.873 194.49C396.772 195.542 398.294 196.126 398.975 195.361C401.276 192.693 403.14 189.678 404.496 186.426C405.871 183.269 406.619 179.489 408.532 176.613C408.999 175.911 409.609 175.124 410.483 174.952C412.106 174.628 413.061 176.083 413.338 177.504C413.759 179.606 413.073 181.94 412.539 183.958C411.391 188.268 409.533 192.334 407.675 196.374C406.964 197.917 409.041 199.2 409.987 197.724C412.089 194.419 414.44 191.278 416.664 188.053C417.366 187.032 419.233 183.874 420.679 185.657C421.449 186.603 421.045 188.6 420.86 189.668C420.48 191.591 419.943 193.48 419.254 195.315C418.112 198.407 416.814 201.439 415.365 204.401C412.615 210.182 410.895 216.455 407.633 221.992C403.958 228.228 396.57 234.106 389.032 230.994C387.682 230.439 386.673 232.798 388.031 233.374C394.821 236.267 402.419 233.189 407.145 227.908C412.678 221.74 414.465 213.352 417.883 206.019C419.636 202.417 421.163 198.708 422.454 194.915C423.463 191.77 425.418 185.951 422.34 183.311C420.343 181.599 417.602 182.381 415.991 184.181C414.667 185.661 413.632 187.507 412.485 189.121C410.803 191.488 409.205 193.906 407.658 196.361L409.97 197.711C412.253 192.636 414.595 187.477 415.588 181.961C416.222 178.416 416.029 172.551 411.118 172.383C407.195 172.248 405.581 176.672 404.479 179.682C402.675 184.631 400.758 189.613 397.222 193.608L399.324 194.478L400.195 185.409C400.451 182.743 400.985 179.943 400.699 177.252C400.312 173.632 396.562 169.389 392.816 172.253C391.218 173.476 390.873 175.536 390.562 177.399C390.074 180.342 389.469 183.285 388.725 186.17C387.184 192.105 385.09 197.884 382.473 203.429H384.604C382.128 200.045 384.932 193.486 379.874 191.749C373.988 189.723 371.103 197.846 370.675 202.096C369.539 213.365 374.038 229.426 386.501 232.504C387.169 232.668 387.669 231.663 386.992 231.343L387.001 231.356Z" fill="black"/>
<path d="M365.057 329.385C363.404 324.672 362.21 319.874 362.114 314.858C362.017 310.002 362.955 305.263 363.341 300.449C363.438 299.154 361.424 298.603 360.861 299.776C358.582 304.528 358.481 309.914 359.158 315.056C359.835 320.198 361.298 325.34 363.901 329.877C364.249 330.482 365.305 330.079 365.061 329.385H365.057Z" fill="black"/>
<path d="M371.797 167.729C392.812 167.729 409.848 150.693 409.848 129.677C409.848 108.662 392.812 91.6263 371.797 91.6263C350.782 91.6263 333.746 108.662 333.746 129.677C333.746 150.693 350.782 167.729 371.797 167.729Z" fill="#1A6AFF" stroke="black" stroke-width="0.420454"/>
<path d="M408.196 129.677C408.082 144.814 398.563 158.752 384.23 163.902C369.717 169.048 353.535 164.615 343.673 152.79C333.952 141.072 332.771 123.926 340.604 110.913C348.437 97.8995 363.947 90.9957 378.819 93.9514C395.784 97.3151 408.066 112.451 408.196 129.69C408.196 131.818 411.517 131.822 411.505 129.69C411.372 113.036 400.975 98.1919 385.369 92.3747C369.712 86.6019 351.447 91.6642 340.986 104.66C330.525 117.657 329.193 136.14 337.892 150.355C346.549 164.508 363.447 171.832 379.697 168.603C398.088 164.949 411.362 148.299 411.505 129.69C411.517 127.55 408.213 127.546 408.196 129.677Z" fill="black"/>
<path d="M382.338 117.03C380.5 118.153 379.109 120.057 377.683 121.655C376.161 123.362 374.656 125.086 373.138 126.802C371.709 128.413 370.262 130.01 368.799 131.591C367.353 133.155 365.965 135.375 364.435 136.636L366.798 135.257L366.335 135.387H369.186L368.635 135.206L371.006 136.586C368.593 134.593 366.348 132.352 363.972 130.304C361.807 128.437 358.611 128.176 356.484 130.304C354.454 132.387 354.454 135.709 356.484 137.792C357.825 139.096 359.141 140.428 360.52 141.686C362.068 143.098 363.754 144.915 365.78 145.562C370.536 147.084 373.525 142.926 375.417 139.23C377.099 135.945 378.79 132.672 380.492 129.413C381.383 127.731 382.287 126.049 383.141 124.333C383.944 122.736 385.016 121.088 385.336 119.326C385.638 117.644 383.965 116.025 382.338 117.022V117.03Z" fill="white"/>
<path d="M196.775 422.705C198.217 424.614 200.256 425.349 202.48 426.014C205.945 427.048 209.405 428.116 212.907 428.995C213.392 429.128 213.892 428.844 214.026 428.36C214.159 427.876 213.875 427.375 213.391 427.241C210.574 426.375 207.723 425.635 204.877 424.878C202.467 424.244 199.537 423.861 197.792 421.935C197.309 421.397 196.325 422.129 196.775 422.721V422.705Z" fill="white"/>
<path d="M241.065 431.622C247.489 432.787 254.062 432.876 260.515 431.883C263.724 431.421 266.822 430.529 269.917 429.638C273.251 428.684 276.69 427.767 279.73 426.068C280.937 425.396 280.458 423.26 278.999 423.369C272.789 423.84 266.633 426.485 260.755 428.414C254.448 430.479 247.814 430.937 241.246 430.294C240.489 430.218 240.317 431.484 241.065 431.622Z" fill="white"/>
<path d="M144.52 258.16C161.749 279.255 170.645 305.935 169.525 333.148C169.525 333.522 170.088 333.518 170.105 333.148C171.29 305.785 162.286 278.954 144.836 257.844C144.651 257.626 144.344 257.941 144.52 258.16Z" fill="black"/>
<path d="M168.31 337.172C168.625 337.033 168.936 336.894 169.243 336.751C169.389 336.665 169.44 336.478 169.357 336.331C169.268 336.188 169.084 336.139 168.936 336.217C168.621 336.356 168.314 336.507 168.007 336.659C167.937 336.7 167.886 336.767 167.865 336.846C167.845 336.925 167.856 337.009 167.898 337.079C167.985 337.224 168.171 337.272 168.318 337.188L168.31 337.172Z" fill="black"/>
<path d="M303.515 235.514C309.613 243.515 313.366 253.055 314.354 263.067C314.392 263.432 314.972 263.437 314.935 263.067C313.916 252.959 310.095 243.336 303.902 235.283C303.729 235.056 303.338 235.283 303.515 235.514Z" fill="black"/>
<path d="M184.85 478.146C183.492 468.475 182.298 458.775 184.628 449.168C184.653 449.046 184.579 448.925 184.458 448.892C184.338 448.86 184.213 448.927 184.173 449.046C181.651 458.628 183.03 468.618 184.396 478.272C184.438 478.57 184.892 478.444 184.85 478.146Z" fill="black"/>
<path d="M185.641 445.985C187.178 441.112 190.056 436.77 193.945 433.456C194.247 433.195 193.802 432.745 193.499 433.014C189.608 436.456 186.744 440.908 185.225 445.876C185.14 446.145 185.557 446.254 185.645 445.994L185.641 445.985Z" fill="black"/>
<path d="M372.226 238.054C377.333 244.962 384.993 249.538 393.497 250.76C401.363 251.84 411.4 249.65 414.284 241.228C414.402 240.879 413.864 240.753 413.746 241.081C410.201 249.738 400.035 251.487 391.739 249.864C384.09 248.351 377.269 244.068 372.583 237.835C372.419 237.616 372.045 237.835 372.209 238.054H372.226Z" fill="black"/>
<path d="M39.9642 132.66C50.2824 124.628 61.5365 117.877 73.4799 112.554C85.0654 107.397 98.4085 103.615 110.263 108.107C118.972 111.376 125.464 118.643 131.609 125.625L151.784 148.55C157.514 155.065 163.628 162.696 162.717 171.313C161.94 178.6 156.383 184.317 151.13 189.416L135.747 204.344C135.207 204.867 134.637 205.449 134.536 206.194C134.515 206.876 134.698 207.549 135.061 208.127C138.061 214.095 141.059 220.067 144.055 226.044L130.371 214.618C129.599 213.969 128.736 213.29 127.724 213.275C127.07 213.304 126.433 213.484 125.86 213.8C111.466 220.696 101.276 236.747 85.3912 238.237C77.0804 239.016 68.9459 235.446 61.9442 230.903C49.1702 222.607 38.9148 210.995 29.6195 198.932C22.653 189.897 15.8128 179.499 16.6394 168.116C17.5721 155.218 27.9352 145.276 37.5878 136.682" fill="#FFD000"/>
<path d="M39.4087 132.078C52.0451 122.075 66.1209 113.347 81.4191 108.057C87.7 105.881 94.3966 104.488 101.049 104.883C107.764 105.31 114.197 107.735 119.52 111.847C125.385 116.279 130.134 121.955 134.963 127.439C140.724 133.978 146.482 140.518 152.238 147.059C156.775 152.211 161.549 157.715 163.442 164.462C165.246 170.903 163.32 177.18 159.405 182.4C154.434 189.073 147.77 194.621 141.821 200.378C140.21 201.94 137.985 203.526 136.695 205.358C135.727 206.728 136.314 207.554 136.999 208.913L138.62 212.139C140.838 216.558 143.034 220.989 145.239 225.419C145.948 226.85 144.193 227.912 143.076 226.973C139.773 224.191 136.463 221.415 133.147 218.643C131.76 217.485 129.817 215.168 128.039 214.812C126.26 214.456 124.032 216.221 122.573 217.112C116.216 221.001 110.816 226.225 104.928 230.742C99.5218 234.887 93.5985 238.619 86.7161 239.549C80.2088 240.424 73.801 238.766 67.9455 235.968C54.4754 229.538 43.4708 218.222 34.0956 206.866C25.5321 196.496 15.2053 184.295 15.1678 170.087C15.1352 155.556 26.6135 144.668 36.6744 135.732C37.9608 134.584 39.7966 136.526 38.5121 137.677C29.6544 145.589 19.2512 155.018 18.0703 167.606C16.7368 181.832 27.4927 194.386 35.9318 204.627C45.1054 215.769 55.7504 226.794 68.8721 233.242C74.9172 236.212 81.7154 237.845 88.4055 236.334C95.3397 234.749 101.217 230.423 106.632 226.023C112.533 221.234 118.46 215.558 125.553 212.547C129.154 211.005 131.538 213.919 134.125 216.075C137.753 219.102 141.388 222.125 145.029 225.146L142.869 226.697C140.998 223 139.115 219.309 137.255 215.606C136.355 213.817 135.461 212.02 134.56 210.228C133.944 208.999 133.014 207.607 133.159 206.164C133.289 204.869 134.206 203.954 135.087 203.092C136.69 201.516 138.326 199.977 139.931 198.395L148.48 190.104C153.224 185.508 158.731 180.686 160.753 174.168C162.93 167.131 159.456 160.355 155.264 154.853C150.537 148.66 145.077 142.968 139.933 137.117C134.86 131.339 129.929 125.375 124.556 119.873C119.598 114.801 113.915 110.273 106.941 108.432C100.536 106.726 93.7914 107.364 87.443 108.958C79.6257 110.919 72.1768 114.282 65.0387 117.968C56.4406 122.35 48.2385 127.469 40.5247 133.268C39.7027 133.891 38.5804 132.741 39.4053 132.089L39.4087 132.078Z" fill="black"/>
<path d="M102.459 194.085C87.9033 201.819 69.8379 196.296 62.1092 181.749C54.3804 167.203 59.915 149.141 74.4711 141.407C89.0271 133.673 107.093 139.196 114.821 153.743C122.55 168.289 117.015 186.351 102.459 194.085Z" fill="white"/>
<path d="M63.2726 181.131C68.9363 191.546 80.6038 197.689 92.4318 195.989C104.329 194.223 113.883 185.259 116.399 173.501C118.851 161.853 113.467 149.557 103.313 143.386C93.1595 137.214 79.719 138.066 70.4563 145.635C59.9554 154.224 57.0567 169.161 63.2834 181.125C64.0783 182.621 61.7422 183.867 60.9599 182.36C54.9367 170.795 56.6618 156.713 65.2996 146.935C74.0397 137.14 88.557 133.923 100.616 139.045C112.561 144.135 120.349 156.431 119.599 169.436C118.785 182.454 110.023 193.626 97.5697 197.524C83.4059 201.904 67.9882 195.264 60.9708 182.354C60.1397 180.877 62.4632 179.643 63.2726 181.131Z" fill="black"/>
<path d="M94.3349 156.564C94.0041 156.485 93.6799 156.381 93.3652 156.252C93.4546 155.931 93.5506 155.954 93.6569 156.32C93.7453 156.461 93.8457 156.594 93.9568 156.718C94.2974 157.132 95.1449 158.08 95.7238 158.102L94.6942 158.491L94.8564 158.368L94.414 159.346C94.4825 158.845 93.3496 157.868 93.101 157.461C92.3532 156.237 93.8898 155.184 94.9641 155.718C96.226 156.344 97.9183 158.724 97.05 160.152C95.9203 162.006 93.5752 160.182 92.6174 159.158C91.5794 158.079 90.2134 156.05 91.5461 154.692C92.7211 153.491 94.4942 154.222 95.2804 155.439C95.6603 156.031 94.9643 156.777 94.3406 156.575L94.3349 156.564Z" fill="black"/>
<path d="M79.7052 169.98C79.3744 169.901 79.0503 169.797 78.7355 169.669C78.825 169.347 78.921 169.37 79.0273 169.737C79.1157 169.878 79.216 170.011 79.3271 170.135C79.6677 170.548 80.4972 171.506 81.0942 171.518L80.0645 171.907L80.2267 171.784L79.7843 172.762C79.8529 172.261 78.72 171.284 78.4714 170.877C77.7236 169.654 79.2602 168.6 80.3345 169.135C81.5964 169.76 83.2887 172.141 82.4203 173.568C81.2907 175.423 78.9456 173.598 77.9878 172.574C76.9679 171.486 75.5837 169.467 76.9145 168.105C78.0915 166.908 79.8645 167.638 80.6508 168.855C81.0306 169.448 80.3347 170.194 79.711 169.991L79.7052 169.98Z" fill="black"/>
<path d="M90.7665 149.717C89.793 149.683 88.8323 149.948 88.0146 150.478C87.2962 150.981 87.0719 151.792 86.4241 152.331C86.0977 152.622 85.6306 152.693 85.2328 152.512C84.835 152.331 84.5814 151.933 84.5861 151.496C84.5815 150.184 85.9056 149.072 86.9918 148.518C88.2921 147.86 89.6341 148.006 91.0093 148.311C91.8474 148.497 91.5389 149.693 90.7665 149.717Z" fill="black"/>
<path d="M70.1102 168.254C69.9586 166.561 69.9363 164.9 70.8116 163.381C71.6004 162.005 73.214 160.492 74.9093 160.971C75.2912 161.095 75.5805 161.41 75.6723 161.801C75.764 162.192 75.645 162.602 75.3582 162.883C74.4699 163.722 73.4238 163.888 72.7817 165.033C72.2252 166.057 71.8287 167.161 71.6059 168.305C71.4491 169.025 70.1948 169.008 70.1247 168.247L70.1102 168.254Z" fill="black"/>
<path d="M97.5069 164.354C99.087 169.953 91.6727 176.828 86.1563 175.132C85.7608 174.998 85.5009 174.619 85.5174 174.202C85.5339 173.785 85.8228 173.428 86.2277 173.324C88.465 172.767 90.4232 172.735 92.4083 171.327C94.3934 169.919 96.5125 167.233 96.0972 164.666C96.0263 164.284 96.2714 163.914 96.6515 163.83C97.0315 163.745 97.4098 163.977 97.5069 164.354Z" fill="black"/>
</svg>
