<svg width="450" height="454" viewBox="0 0 450 454" fill="none" xmlns="http://www.w3.org/2000/svg">
<g filter="url(#filter0_f_15_2)">
<ellipse cx="223" cy="404.001" rx="173" ry="30" fill="black" fill-opacity="0.4"/>
</g>
<path d="M429.327 141.943H370.058C370.558 139.128 372.033 136.579 374.226 134.743C376.42 132.907 379.191 131.902 382.052 131.904H382.519C384.211 128.908 386.747 126.476 389.811 124.909C392.874 123.343 396.331 122.711 399.75 123.093C403.169 123.474 406.401 124.852 409.043 127.054C411.686 129.257 413.623 132.188 414.613 135.482C415.551 134.62 416.665 133.972 417.878 133.584C419.091 133.195 420.374 133.076 421.638 133.233C422.902 133.39 424.117 133.82 425.198 134.494C426.279 135.168 427.2 136.069 427.898 137.134C428.83 138.559 429.327 140.225 429.327 141.927V141.943Z" fill="white"/>
<path fill-rule="evenodd" clip-rule="evenodd" d="M185.99 21.1753C181.041 25.2283 177.495 29.3033 176.369 32.4893L175.146 32.0583C176.399 28.5153 180.19 24.2503 185.168 20.1733C190.174 16.0733 196.48 12.0833 202.9 9.11334C209.309 6.14934 215.89 4.17434 221.434 4.16434C227.002 4.15434 231.639 6.14134 233.86 11.2023C236.457 17.1153 234.001 23.3343 230.265 28.8423C227.445 33.0013 223.796 36.8953 220.795 40.0973C219.814 41.1443 218.902 42.1173 218.112 43.0013C217.563 43.6096 217.009 44.2129 216.449 44.8113C214.013 47.4363 210.563 51.1553 207.921 55.0713C206.257 57.5373 204.952 60.0283 204.419 62.3233C203.89 64.6023 204.133 66.6223 205.472 68.2673H205.473C207.237 70.4423 210.344 71.3063 213.287 71.0393C216.236 70.7733 219.024 69.5383 221.824 68.2313C224.037 67.1993 226.291 65.9553 228.607 64.6773L229.472 64.2003C232.084 62.7613 234.772 61.3103 237.519 60.1333C243.017 57.7783 248.838 56.4833 254.921 58.5943L254.495 59.8183C248.852 57.8583 243.394 59.0263 238.03 61.3243C235.348 62.4733 232.71 63.8953 230.098 65.3343L229.234 65.8113C226.923 67.0873 224.629 68.3533 222.373 69.4053C219.591 70.7033 216.609 72.0403 213.404 72.3303C210.195 72.6203 206.592 71.7033 204.466 69.0843C202.799 67.0363 202.567 64.5653 203.156 62.0303C203.741 59.5103 205.146 56.8663 206.845 54.3473C209.552 50.3363 213.102 46.5113 215.535 43.8903C216.155 43.2223 216.702 42.6323 217.145 42.1383C217.971 41.2153 218.907 40.2153 219.906 39.1493C222.895 35.9593 226.435 32.1813 229.191 28.1163C232.875 22.6843 234.984 16.9863 232.673 11.7233C230.729 7.29234 226.689 5.45034 221.436 5.46034C216.16 5.47034 209.777 7.36034 203.445 10.2903C197.124 13.2133 190.911 17.1443 185.99 21.1753ZM143.206 29.0773C135.182 29.8823 129.194 35.3853 126.148 41.1833C124.619 44.0933 123.617 47.1503 122.633 50.2713L122.43 50.9163C121.518 53.8163 120.59 56.7663 119.243 59.6193C116.333 65.7763 110.674 71.8753 102.269 73.4133C90.7249 75.5233 82.2029 70.1863 73.9799 64.5583C73.5059 64.2333 73.0319 63.9083 72.5599 63.5823C64.7819 58.2323 57.1419 52.9773 47.1149 53.2083C42.5449 53.3143 38.0639 54.7123 34.4199 56.9203C30.7699 59.1323 28.0089 62.1243 26.8049 65.3833L25.5889 64.9343C26.9209 61.3273 29.9229 58.1293 33.7469 55.8123C37.5769 53.4923 42.2789 52.0243 47.0849 51.9123C57.5469 51.6723 65.5189 57.1613 73.2249 62.4673L74.7129 63.4893C82.9439 69.1233 91.0629 74.1453 102.036 72.1393C109.911 70.6973 115.281 64.9693 118.07 59.0653C119.378 56.2973 120.281 53.4273 121.198 50.5113L121.396 49.8823C122.379 46.7653 123.411 43.6063 125 40.5813C128.192 34.5063 134.51 28.6483 143.077 27.7883L143.206 29.0773Z" fill="white"/>
<path fill-rule="evenodd" clip-rule="evenodd" d="M319.313 22.6004C277.08 22.6004 242.843 56.8044 242.843 98.9964C242.843 141.188 277.08 175.392 319.313 175.392C361.547 175.392 395.784 141.188 395.784 98.9964C395.784 56.8034 361.547 22.6004 319.313 22.6004ZM241.546 98.9964C241.546 56.0884 276.364 21.3044 319.313 21.3044C362.263 21.3044 397.081 56.0884 397.081 98.9964C397.081 141.904 362.263 176.687 319.313 176.687C276.364 176.687 241.546 141.904 241.546 98.9964Z" fill="white"/>
<path d="M319.314 165.715C356.197 165.715 386.098 135.844 386.098 98.9953C386.098 62.1483 356.197 32.2773 319.314 32.2773C282.43 32.2773 252.529 62.1473 252.529 98.9963C252.529 135.844 282.43 165.715 319.314 165.715Z" fill="#38B6FF"/>
<g style="mix-blend-mode:multiply">
<path fill-rule="evenodd" clip-rule="evenodd" d="M319.313 32.4395C282.519 32.4395 252.691 62.2375 252.691 98.9965C252.691 135.754 282.519 165.553 319.313 165.553C356.108 165.553 385.936 135.754 385.936 98.9965C385.936 62.2375 356.108 32.4395 319.313 32.4395ZM252.367 98.9965C252.367 62.0595 282.34 32.1155 319.313 32.1155C356.287 32.1155 386.26 62.0595 386.26 98.9955C386.26 135.933 356.287 165.877 319.313 165.877C282.34 165.877 252.367 135.933 252.367 98.9965Z" fill="#C2C6FF"/>
</g>
<path fill-rule="evenodd" clip-rule="evenodd" d="M299.278 25.1595C281.185 42.5495 269.578 69.1645 269.578 99.0125C269.578 128.86 281.175 155.468 299.278 172.862L298.379 173.796C280.005 156.141 268.281 129.188 268.281 99.0125C268.281 68.8365 280.015 41.8775 298.379 24.2255L299.278 25.1595ZM369.046 98.9925C369.046 69.1415 357.452 42.5335 339.346 25.1425L340.245 24.2095C358.622 41.8605 370.343 68.8135 370.343 98.9925C370.343 129.172 358.609 156.125 340.245 173.779L339.346 172.846C357.439 155.452 369.046 128.844 369.046 98.9925Z" fill="white"/>
<path fill-rule="evenodd" clip-rule="evenodd" d="M396.429 99.6444H242.194V98.3484H396.429V99.6444Z" fill="white"/>
<path fill-rule="evenodd" clip-rule="evenodd" d="M318.665 176.039V21.9524H319.962V176.039H318.665Z" fill="white"/>
<path d="M369.072 45.4424C373.838 45.4424 377.702 41.5824 377.702 36.8214C377.702 32.0604 373.838 28.2004 369.072 28.2004C364.306 28.2004 360.442 32.0604 360.442 36.8214C360.442 41.5824 364.306 45.4424 369.072 45.4424Z" fill="#2A3695"/>
<path fill-rule="evenodd" clip-rule="evenodd" d="M369.072 28.8475C364.664 28.8475 361.091 32.4175 361.091 36.8215C361.091 41.2255 364.664 44.7955 369.072 44.7955C373.48 44.7955 377.053 41.2255 377.053 36.8215C377.053 32.4175 373.48 28.8475 369.072 28.8475ZM359.794 36.8215C359.794 31.7015 363.948 27.5525 369.072 27.5525C374.196 27.5525 378.35 31.7025 378.35 36.8215C378.35 41.9415 374.196 46.0905 369.072 46.0905C363.948 46.0905 359.794 41.9405 359.794 36.8215Z" fill="white"/>
<path d="M369.072 107.62C373.838 107.62 377.702 103.76 377.702 98.9994C377.702 94.2384 373.838 90.3784 369.072 90.3784C364.306 90.3784 360.442 94.2384 360.442 98.9984C360.442 103.76 364.306 107.62 369.072 107.62Z" fill="#2A3695"/>
<path fill-rule="evenodd" clip-rule="evenodd" d="M369.072 91.0265C364.664 91.0265 361.091 94.5965 361.091 98.9995C361.091 103.403 364.664 106.972 369.072 106.972C373.48 106.972 377.053 103.403 377.053 98.9995C377.053 94.5955 373.48 91.0265 369.072 91.0265ZM359.794 98.9995C359.794 93.8795 363.948 89.7305 369.072 89.7305C374.196 89.7305 378.35 93.8805 378.35 98.9995C378.35 104.118 374.196 108.268 369.072 108.268C363.948 108.268 359.794 104.118 359.794 98.9995Z" fill="white"/>
<path d="M303.938 36.7754C304.027 40.8518 302.871 44.8584 300.624 48.2604L300.466 48.4964L286.179 69.8194C285.918 70.2106 285.564 70.5312 285.149 70.7528C284.734 70.9744 284.271 71.09 283.801 71.0894C283.331 71.0894 282.868 70.9735 282.453 70.752C282.038 70.5305 281.684 70.2102 281.423 69.8194L267.124 48.4994L266.965 48.2594C265.247 45.6558 264.159 42.6881 263.786 39.5912C263.414 36.4942 263.767 33.3531 264.819 30.4164C265.87 27.4782 267.59 24.8246 269.844 22.6656C272.097 20.5066 274.821 18.9012 277.802 17.9764C280.783 17.0504 283.939 16.8292 287.02 17.3304C290.101 17.8315 293.024 19.0413 295.558 20.8644C298.09 22.6868 300.163 25.0729 301.615 27.8342C303.066 30.5956 303.856 33.6566 303.921 36.7754H303.938Z" fill="#2A3695"/>
<path fill-rule="evenodd" clip-rule="evenodd" d="M286.916 17.9695C283.934 17.4848 280.881 17.6991 277.996 18.5956C275.111 19.4921 272.474 21.0462 270.292 23.1355C268.112 25.2241 266.448 27.791 265.43 30.6335C264.413 33.4759 264.071 36.5161 264.431 39.5135C264.791 42.5109 265.844 45.3833 267.506 47.9035L267.662 48.1395L267.664 48.1425L281.962 69.4595C282.267 69.9165 282.731 70.2436 283.264 70.3771C283.796 70.5106 284.36 70.4408 284.844 70.1815C285.164 70.0095 285.438 69.7615 285.64 69.4595L300.083 47.9035L300.085 47.9015C302.231 44.6499 303.349 40.8273 303.292 36.9315C303.281 36.885 303.274 36.8374 303.273 36.7895C303.21 33.7708 302.446 30.8081 301.041 28.1355C299.636 25.4628 297.63 23.1533 295.179 21.3895C292.727 19.625 289.898 18.4542 286.916 17.9695ZM277.609 17.3585C280.686 16.4027 283.943 16.1743 287.124 16.6914C290.304 17.2085 293.321 18.457 295.937 20.3385C298.53 22.2056 300.658 24.6456 302.154 27.4688C303.651 30.2921 304.476 33.4224 304.566 36.6165C304.578 36.6639 304.585 36.7126 304.586 36.7615C304.678 40.9691 303.485 45.1047 301.166 48.6165L301.163 48.6215L286.718 70.1795C286.398 70.6595 285.964 71.0528 285.455 71.3246C284.946 71.5965 284.378 71.7383 283.801 71.7375C283.224 71.7374 282.656 71.5952 282.148 71.3235C281.639 71.0517 281.205 70.6588 280.884 70.1795L266.585 48.8595L266.583 48.8575L266.423 48.6165C263.749 44.5617 262.581 39.6973 263.124 34.8704C263.667 30.0436 265.886 25.56 269.394 22.2005C271.72 19.972 274.533 18.3144 277.609 17.3585Z" fill="white"/>
<path d="M291.166 39.0744C291.413 38.1057 291.468 37.0978 291.325 36.1082C291.183 35.1186 290.847 34.1668 290.337 33.307C289.827 32.4473 289.152 31.6965 288.352 31.0975C287.551 30.4986 286.641 30.0632 285.672 29.8164C281.596 28.7754 277.446 31.2324 276.404 35.3044C276.156 36.2731 276.102 37.2811 276.244 38.2708C276.386 39.2605 276.722 40.2124 277.232 41.0723C277.743 41.9322 278.417 42.6831 279.218 43.2821C280.018 43.8811 280.929 44.3165 281.898 44.5634C285.975 45.6044 290.124 43.1474 291.166 39.0744Z" fill="white"/>
<path d="M126.621 208.448H27.8599C28.6959 203.761 31.1557 199.517 34.8079 196.461C38.4621 193.405 43.0748 191.731 47.8389 191.731H48.6169C51.4324 186.734 55.6565 182.675 60.7629 180.061C65.8708 177.448 71.6345 176.393 77.337 177.029C83.0395 177.665 88.4292 179.964 92.8359 183.638C97.239 187.313 100.463 192.202 102.107 197.696C104.196 195.773 106.799 194.5 109.6 194.032C112.4 193.564 115.276 193.922 117.877 195.061C120.477 196.198 122.689 198.069 124.243 200.443C125.796 202.818 126.624 205.595 126.624 208.432L126.621 208.448Z" fill="#38B6FF"/>
<g style="mix-blend-mode:multiply">
<path fill-rule="evenodd" clip-rule="evenodd" d="M77.3201 177.189C71.6488 176.557 65.9166 177.606 60.8371 180.206C55.759 182.805 51.5581 186.841 48.7581 191.81C48.7442 191.835 48.7239 191.856 48.6993 191.871C48.6747 191.885 48.6467 191.893 48.6181 191.893H47.8391C43.1128 191.892 38.5367 193.553 34.9121 196.586C31.3396 199.574 28.9155 203.71 28.0541 208.287H126.462C126.434 205.531 125.617 202.841 124.108 200.534C122.958 198.779 121.439 197.295 119.658 196.185C117.876 195.075 115.874 194.366 113.791 194.107C111.709 193.849 109.594 194.046 107.595 194.687C105.597 195.327 103.761 196.395 102.216 197.815C102.196 197.834 102.172 197.847 102.145 197.854C102.118 197.86 102.09 197.86 102.064 197.852C102.038 197.845 102.013 197.832 101.993 197.813C101.974 197.793 101.959 197.77 101.951 197.743C100.317 192.279 97.1105 187.417 92.7311 183.763C88.3503 180.108 82.9903 177.822 77.3201 177.189ZM60.6891 179.917C65.8253 177.289 71.6208 176.229 77.3547 176.869C83.0887 177.508 88.5081 179.819 92.9391 183.514C97.3002 187.153 100.513 191.978 102.187 197.405C104.3 195.527 106.907 194.293 109.699 193.851C112.492 193.41 115.353 193.778 117.942 194.912C120.571 196.063 122.808 197.956 124.379 200.357C125.95 202.758 126.786 205.564 126.786 208.432C126.786 208.443 126.785 208.454 126.783 208.464L126.78 208.48C126.773 208.517 126.753 208.55 126.724 208.574C126.695 208.597 126.659 208.61 126.621 208.61H27.8601C27.8365 208.61 27.8133 208.605 27.7919 208.595C27.7705 208.586 27.7515 208.571 27.7361 208.553C27.7208 208.535 27.7097 208.514 27.7035 208.491C27.6972 208.468 27.6961 208.444 27.7001 208.42C28.5426 203.695 31.0219 199.417 34.7031 196.337C38.3866 193.256 43.0366 191.568 47.8391 191.569H48.5221C51.3539 186.581 55.5833 182.531 60.6891 179.917Z" fill="#C2C6FF"/>
</g>
<path fill-rule="evenodd" clip-rule="evenodd" d="M50.0568 185.363C44.4822 184.738 38.8468 185.766 33.8518 188.319C28.8583 190.871 24.726 194.835 21.9698 199.718C21.9132 199.818 21.8312 199.901 21.7321 199.959C21.6331 200.017 21.5205 200.047 21.4058 200.047H20.6278C16.0154 200.047 11.5496 201.668 8.01183 204.627C4.68087 207.415 2.36875 211.228 1.43783 215.47H98.7418C98.6241 212.985 97.8438 210.577 96.4818 208.495C94.996 206.226 92.8812 204.438 90.3958 203.35C87.9104 202.261 85.1616 201.919 82.4851 202.367C79.8086 202.814 77.3203 204.03 75.3238 205.868C75.2427 205.942 75.1442 205.995 75.0374 206.02C74.9306 206.046 74.8191 206.044 74.7133 206.015C74.6075 205.985 74.5107 205.93 74.4322 205.853C74.3536 205.777 74.2956 205.681 74.2638 205.576C72.6583 200.205 69.5074 195.424 65.2038 191.831C60.8986 188.237 55.6305 185.988 50.0568 185.363ZM99.2938 216.765C99.4179 216.787 99.5455 216.772 99.6613 216.723C99.7771 216.673 99.8759 216.591 99.9458 216.486L99.9528 216.476C100.042 216.343 100.078 216.182 100.054 216.023C100.033 213.096 99.1695 210.236 97.5658 207.786C95.9421 205.306 93.6312 203.351 90.9153 202.162C88.1994 200.973 85.196 200.601 82.2718 201.09C79.6835 201.522 77.2502 202.614 75.2068 204.26C73.4507 199.024 70.2763 194.377 66.0368 190.837C62.6965 188.049 58.7877 186.023 54.5835 184.901C50.3792 183.779 45.9807 183.588 41.695 184.342C37.4094 185.095 33.3398 186.775 29.7706 189.264C26.2013 191.753 23.2183 194.991 21.0298 198.752H20.6278C15.7112 198.751 10.9508 200.479 7.17983 203.634C3.41063 206.787 0.872154 211.167 0.00983097 216.004C-0.00704032 216.098 -0.00318687 216.193 0.021118 216.285C0.0454229 216.377 0.089584 216.462 0.150469 216.534C0.211355 216.607 0.287473 216.665 0.373426 216.705C0.45938 216.745 0.553062 216.766 0.647831 216.765H99.2938Z" fill="white"/>
<path d="M88.3162 128.407C96.4112 128.407 102.972 121.851 102.972 113.765C102.972 105.678 96.4112 99.1226 88.3162 99.1226C80.2222 99.1226 73.6602 105.678 73.6602 113.765C73.6602 121.851 80.2222 128.407 88.3162 128.407Z" fill="#C3C5FB"/>
<path fill-rule="evenodd" clip-rule="evenodd" d="M88.316 99.2435C80.289 99.2435 73.782 105.744 73.782 113.764C73.782 121.783 80.289 128.284 88.316 128.284C96.344 128.284 102.851 121.783 102.851 113.764C102.851 105.744 96.344 99.2435 88.316 99.2435ZM73.54 113.764C73.54 105.61 80.156 99.0005 88.317 99.0005C96.479 99.0005 103.095 105.61 103.095 113.764C103.095 121.917 96.479 128.527 88.317 128.527C80.156 128.527 73.54 121.917 73.54 113.764Z" fill="#C2C6FB"/>
<path d="M87.4961 106.419C87.5874 106.286 87.7098 106.177 87.8526 106.102C87.9955 106.027 88.1546 105.987 88.3161 105.987C88.4776 105.987 88.6367 106.027 88.7795 106.102C88.9224 106.177 89.0448 106.286 89.1361 106.419C88.6086 106.215 88.0236 106.215 87.4961 106.419Z" fill="white"/>
<path fill-rule="evenodd" clip-rule="evenodd" d="M87.496 106.42L87.54 106.533C88.0394 106.34 88.5926 106.34 89.092 106.533L89.457 106.674L89.237 106.351C89.1343 106.201 88.9969 106.079 88.8367 105.994C88.6765 105.91 88.4982 105.865 88.317 105.865C88.1355 105.864 87.9566 105.908 87.7961 105.993C87.6355 106.078 87.4982 106.2 87.396 106.351L87.496 106.42ZM88.316 106.108C88.2093 106.107 88.1034 106.127 88.004 106.166C88.211 106.138 88.421 106.138 88.628 106.166C88.5285 106.127 88.4227 106.107 88.316 106.108Z" fill="#C2C6FB"/>
<path d="M82.4262 111.472L87.3702 106.533C87.4092 106.494 87.4513 106.46 87.4962 106.429C88.0238 106.225 88.6085 106.225 89.1362 106.429C89.1822 106.459 89.2242 106.494 89.2632 106.533L94.2072 111.472C94.3463 111.609 94.4412 111.786 94.4799 111.978C94.5186 112.17 94.4993 112.369 94.4245 112.55C94.3496 112.731 94.2226 112.885 94.0596 112.994C93.8966 113.103 93.705 113.16 93.5092 113.16C93.2468 113.16 92.9951 113.056 92.8092 112.871L89.3052 109.37V120.566C89.3054 120.695 89.28 120.824 89.2304 120.944C89.1808 121.064 89.1079 121.173 89.016 121.265C88.9241 121.357 88.815 121.43 88.6949 121.479C88.5748 121.529 88.4461 121.554 88.3162 121.554C88.1863 121.554 88.0577 121.528 87.9376 121.479C87.8176 121.429 87.7085 121.357 87.6166 121.265C87.5247 121.173 87.4519 121.064 87.4022 120.944C87.3525 120.824 87.327 120.695 87.3272 120.566V109.36L83.8272 112.861C83.6417 113.046 83.3899 113.151 83.1274 113.151C82.8648 113.151 82.613 113.047 82.4272 112.862C82.2414 112.676 82.1369 112.424 82.1367 112.162C82.1365 111.899 82.2407 111.647 82.4262 111.462V111.472Z" fill="white"/>
<path fill-rule="evenodd" clip-rule="evenodd" d="M87.5532 106.537C87.5185 106.562 87.4857 106.589 87.4552 106.618L82.4392 111.629C82.3057 111.804 82.2434 112.023 82.265 112.242C82.2865 112.461 82.3903 112.664 82.5554 112.809C82.7204 112.954 82.9345 113.032 83.1544 113.026C83.3743 113.019 83.5836 112.93 83.7402 112.775L87.4492 109.066V120.565C87.4492 120.795 87.5405 121.016 87.7031 121.179C87.8657 121.341 88.0862 121.432 88.3162 121.432C88.5461 121.432 88.7666 121.341 88.9292 121.179C89.0918 121.016 89.1832 120.795 89.1832 120.565V109.076L92.8952 112.784C93.017 112.904 93.1715 112.986 93.3393 113.018C93.507 113.051 93.6807 113.033 93.8386 112.968C93.9964 112.902 94.1315 112.792 94.2269 112.65C94.3224 112.508 94.3739 112.341 94.3752 112.17C94.3751 111.941 94.2838 111.72 94.1212 111.557L89.1772 106.618L89.1762 106.617C89.1465 106.588 89.1144 106.561 89.0802 106.537C88.5884 106.35 88.045 106.35 87.5532 106.537ZM82.5472 111.178L87.2842 106.445C87.3292 106.402 87.3762 106.363 87.4272 106.328L87.4392 106.32L87.4522 106.315C88.0081 106.101 88.6242 106.101 89.1802 106.315L89.1922 106.32L89.2032 106.327C89.2559 106.362 89.3048 106.403 89.3492 106.447L94.2922 111.385C94.4478 111.54 94.554 111.738 94.5971 111.953C94.6403 112.169 94.6186 112.392 94.5348 112.595C94.4509 112.798 94.3087 112.971 94.1261 113.094C93.9435 113.216 93.7288 113.281 93.5092 113.28C93.3633 113.281 93.2187 113.252 93.0839 113.197C92.949 113.141 92.8264 113.06 92.7232 112.956L89.4262 109.662V120.565C89.4263 120.711 89.3977 120.856 89.3419 120.99C89.2862 121.125 89.2044 121.247 89.1013 121.35C88.9982 121.453 88.8758 121.535 88.741 121.591C88.6063 121.646 88.4619 121.675 88.3162 121.674C88.0219 121.674 87.7398 121.558 87.5316 121.35C87.3235 121.142 87.2064 120.86 87.2062 120.565V109.653L83.9122 112.946C83.7571 113.103 83.559 113.209 83.3432 113.253C83.1273 113.296 82.9034 113.275 82.6999 113.19C82.4965 113.106 82.3226 112.964 82.2005 112.78C82.0784 112.597 82.0135 112.382 82.0142 112.161C82.0142 111.866 82.1312 111.584 82.3402 111.375L82.5472 111.168V111.178Z" fill="#C2C6FB"/>
<path d="M50.0298 157.237C49.8854 157.236 49.7468 157.179 49.6444 157.077C49.5419 156.975 49.4839 156.837 49.4828 156.693V151.744C49.4775 151.668 49.4876 151.593 49.5126 151.522C49.5376 151.451 49.5769 151.386 49.6281 151.331C49.6793 151.275 49.7413 151.231 49.8102 151.201C49.8791 151.171 49.9535 151.155 50.0288 151.155C50.1423 151.155 50.2528 151.191 50.3453 151.256C50.4378 151.322 50.5078 151.415 50.5458 151.522C50.571 151.593 50.5812 151.668 50.5758 151.744V156.693C50.5757 156.764 50.5615 156.835 50.534 156.901C50.5064 156.967 50.4662 157.027 50.4155 157.078C50.3648 157.128 50.3046 157.168 50.2385 157.195C50.1723 157.223 50.1014 157.237 50.0298 157.237Z" fill="white"/>
<path fill-rule="evenodd" clip-rule="evenodd" d="M50.029 151.478C49.9983 151.479 49.9679 151.485 49.9397 151.497C49.9115 151.509 49.8861 151.527 49.865 151.549C49.8443 151.572 49.8283 151.599 49.818 151.628C49.8077 151.657 49.8033 151.688 49.805 151.718L49.807 151.731V156.691C49.8068 156.736 49.8197 156.779 49.8442 156.816C49.8686 156.852 49.9034 156.881 49.9442 156.898C49.985 156.915 50.0299 156.919 50.0731 156.91C50.1163 156.901 50.156 156.88 50.187 156.848C50.2279 156.807 50.2509 156.751 50.251 156.692V151.718C50.2537 151.688 50.2499 151.657 50.2399 151.628C50.2299 151.599 50.2139 151.572 50.193 151.549C50.172 151.527 50.1466 151.509 50.1184 151.497C50.0902 151.485 50.0597 151.478 50.029 151.478ZM49.679 150.903C49.7891 150.856 49.908 150.831 50.028 150.831C50.1481 150.831 50.2669 150.856 50.377 150.904C50.487 150.952 50.586 151.022 50.6678 151.11C50.7495 151.198 50.8122 151.302 50.852 151.415C50.89 151.524 50.906 151.639 50.899 151.754V156.692C50.899 156.864 50.8481 157.032 50.7526 157.175C50.6572 157.318 50.5216 157.429 50.3629 157.495C50.2042 157.561 50.0295 157.578 49.861 157.545C49.6924 157.512 49.5376 157.429 49.416 157.307C49.2525 157.145 49.1597 156.925 49.158 156.694V151.754C49.1467 151.576 49.1908 151.399 49.2842 151.246C49.3776 151.094 49.5149 150.974 49.679 150.903Z" fill="white"/>
<path d="M53.0518 154.222C53.0521 154.293 53.0382 154.364 53.0109 154.43C52.9836 154.496 52.9434 154.557 52.8928 154.607C52.8421 154.658 52.7819 154.698 52.7157 154.725C52.6494 154.752 52.5784 154.766 52.5069 154.766H47.5539C47.4785 154.772 47.4026 154.762 47.3311 154.737C47.2596 154.713 47.1941 154.673 47.1389 154.622C47.0831 154.571 47.0386 154.509 47.0081 154.439C46.9776 154.37 46.9619 154.296 46.9619 154.22C46.9619 154.145 46.9776 154.07 47.0081 154.001C47.0386 153.932 47.0831 153.87 47.1389 153.819C47.1941 153.767 47.2596 153.727 47.331 153.702C47.4025 153.678 47.4784 153.668 47.5539 153.675H52.5168C52.6601 153.677 52.7966 153.736 52.8968 153.838C52.9969 153.941 53.0527 154.078 53.0518 154.222Z" fill="white"/>
<path fill-rule="evenodd" clip-rule="evenodd" d="M47.5289 153.997C47.4981 153.994 47.467 153.998 47.4376 154.008C47.4083 154.018 47.3815 154.034 47.3589 154.055C47.3368 154.077 47.319 154.102 47.3069 154.13C47.2947 154.158 47.2882 154.189 47.2879 154.219C47.2881 154.25 47.2945 154.281 47.3069 154.309C47.3193 154.337 47.3373 154.362 47.3599 154.383C47.3824 154.404 47.4091 154.421 47.4382 154.431C47.4673 154.441 47.4982 154.445 47.5289 154.442L47.5409 154.441H52.5069C52.5651 154.441 52.6208 154.418 52.6619 154.376C52.7031 154.335 52.7264 154.28 52.7269 154.221C52.7272 154.163 52.7046 154.107 52.6639 154.065C52.6236 154.024 52.5693 154 52.5119 153.997H47.5289ZM47.5649 153.35C47.4452 153.341 47.3249 153.357 47.2115 153.397C47.0982 153.436 46.9942 153.499 46.9061 153.58C46.8181 153.662 46.7478 153.761 46.6998 153.871C46.6517 153.981 46.627 154.1 46.627 154.22C46.627 154.34 46.6517 154.459 46.6998 154.569C46.7478 154.679 46.8181 154.778 46.9061 154.859C46.9942 154.941 47.0982 155.004 47.2115 155.043C47.3249 155.083 47.4452 155.098 47.5649 155.089H52.5069C52.7373 155.088 52.958 154.997 53.1219 154.835C53.284 154.672 53.3752 154.451 53.3759 154.221M47.5649 153.35H52.5249C52.7525 153.355 52.9691 153.449 53.1282 153.612C53.2873 153.775 53.3763 153.994 53.3759 154.221" fill="white"/>
<path d="M387.154 268.544C387.009 268.544 386.871 268.486 386.769 268.383C386.667 268.281 386.61 268.142 386.61 267.997V263.039C386.617 262.936 386.653 262.838 386.715 262.754C386.776 262.671 386.859 262.607 386.955 262.569C387.051 262.532 387.156 262.522 387.257 262.542C387.359 262.561 387.453 262.609 387.528 262.679C387.63 262.773 387.692 262.902 387.702 263.039V267.987C387.704 268.06 387.691 268.133 387.664 268.2C387.637 268.268 387.596 268.33 387.545 268.381C387.494 268.434 387.433 268.475 387.366 268.503C387.299 268.531 387.227 268.545 387.154 268.544Z" fill="white"/>
<path fill-rule="evenodd" clip-rule="evenodd" d="M387.156 262.857C387.1 262.857 387.045 262.879 387.004 262.917C386.965 262.953 386.94 263.002 386.934 263.054V267.997C386.934 268.056 386.957 268.113 386.999 268.154C387.04 268.196 387.096 268.22 387.155 268.22C387.215 268.22 387.272 268.196 387.314 268.154C387.335 268.133 387.351 268.108 387.362 268.08C387.373 268.053 387.379 268.023 387.378 267.993V263.054C387.372 263.002 387.347 262.953 387.308 262.917C387.267 262.879 387.213 262.857 387.156 262.857ZM386.564 262.441C386.684 262.33 386.834 262.254 386.995 262.223C387.156 262.193 387.323 262.208 387.475 262.268C387.628 262.328 387.761 262.43 387.858 262.562C387.956 262.694 388.014 262.851 388.026 263.014L388.027 263.026V267.985C388.029 268.218 387.939 268.442 387.777 268.608C387.696 268.691 387.599 268.756 387.492 268.801C387.385 268.846 387.27 268.869 387.154 268.868C386.924 268.867 386.703 268.774 386.541 268.611C386.378 268.448 386.287 268.227 386.286 267.997V263.026L386.287 263.014C386.303 262.795 386.402 262.59 386.564 262.441Z" fill="white"/>
<path d="M390.179 265.511C390.179 265.582 390.165 265.654 390.137 265.72C390.11 265.787 390.069 265.847 390.018 265.898C389.967 265.949 389.907 265.989 389.84 266.016C389.774 266.044 389.703 266.058 389.631 266.058H384.678C384.533 266.058 384.394 266 384.292 265.898C384.19 265.795 384.132 265.657 384.132 265.512C384.132 265.367 384.19 265.229 384.292 265.126C384.394 265.024 384.533 264.967 384.678 264.967H389.631C389.703 264.966 389.774 264.98 389.84 265.007C389.906 265.035 389.967 265.075 390.017 265.125C390.068 265.176 390.109 265.236 390.137 265.302C390.164 265.368 390.179 265.439 390.179 265.511Z" fill="white"/>
<path fill-rule="evenodd" clip-rule="evenodd" d="M384.665 264.643H389.631C389.861 264.642 390.083 264.733 390.246 264.896C390.409 265.058 390.502 265.278 390.503 265.509L390.179 265.511H390.503C390.502 265.742 390.41 265.963 390.247 266.126C390.083 266.289 389.862 266.381 389.631 266.382H384.665L384.653 266.381C384.434 266.363 384.23 266.265 384.081 266.104C383.932 265.942 383.848 265.731 383.848 265.512C383.848 265.292 383.931 265.081 384.08 264.92C384.23 264.759 384.434 264.66 384.653 264.644L384.665 264.643ZM389.855 265.512C389.855 265.453 389.831 265.396 389.789 265.355C389.747 265.313 389.69 265.29 389.631 265.291H384.693C384.641 265.297 384.592 265.322 384.556 265.361C384.517 265.401 384.496 265.455 384.496 265.512C384.496 265.568 384.517 265.622 384.556 265.664C384.592 265.703 384.641 265.727 384.693 265.734H389.631C389.66 265.734 389.689 265.728 389.717 265.717C389.744 265.706 389.768 265.69 389.789 265.669C389.81 265.648 389.826 265.624 389.838 265.597C389.849 265.57 389.855 265.541 389.855 265.512Z" fill="white"/>
<path d="M434.861 183.657H359.635C358.883 183.657 358.273 184.266 358.273 185.017V242.298C358.273 243.05 358.883 243.659 359.635 243.659H434.861C435.04 243.66 435.217 243.624 435.382 243.556C435.547 243.488 435.697 243.388 435.824 243.261C435.95 243.135 436.05 242.985 436.119 242.819C436.187 242.654 436.222 242.477 436.222 242.298V185.017C436.222 184.839 436.187 184.662 436.118 184.497C436.05 184.332 435.95 184.182 435.823 184.055C435.697 183.929 435.547 183.829 435.382 183.761C435.217 183.692 435.04 183.657 434.861 183.657Z" fill="white"/>
<path fill-rule="evenodd" clip-rule="evenodd" d="M359.635 184.305C359.446 184.305 359.265 184.38 359.131 184.513C358.997 184.647 358.922 184.828 358.922 185.018V242.299C358.922 242.693 359.241 243.012 359.635 243.012H434.861C435.05 243.012 435.231 242.936 435.365 242.803C435.499 242.669 435.574 242.488 435.574 242.299V185.018C435.574 184.828 435.499 184.647 435.365 184.513C435.231 184.38 435.05 184.305 434.861 184.305H359.635ZM357.625 185.018C357.625 183.909 358.525 183.01 359.635 183.01H434.861C435.971 183.01 436.871 183.909 436.871 185.018V242.299C436.87 242.831 436.658 243.342 436.282 243.719C435.905 244.095 435.394 244.307 434.861 244.307H359.635C359.102 244.307 358.591 244.095 358.214 243.719C357.838 243.342 357.626 242.831 357.625 242.299V185.018Z" fill="#2A3695"/>
<path fill-rule="evenodd" clip-rule="evenodd" d="M436.222 192.42H358.273V191.125H436.222V192.42ZM361.846 187.893C361.846 187.535 362.136 187.245 362.494 187.245H365.405C365.493 187.24 365.581 187.254 365.664 187.284C365.747 187.314 365.823 187.361 365.887 187.422C365.951 187.483 366.002 187.556 366.037 187.637C366.072 187.718 366.09 187.805 366.09 187.893C366.09 187.982 366.072 188.069 366.037 188.15C366.002 188.231 365.951 188.304 365.887 188.365C365.823 188.426 365.747 188.472 365.664 188.503C365.581 188.533 365.493 188.546 365.405 188.541H362.494C362.409 188.541 362.325 188.525 362.246 188.492C362.167 188.459 362.096 188.412 362.036 188.352C361.976 188.291 361.928 188.22 361.895 188.141C361.863 188.063 361.846 187.978 361.846 187.893ZM368.475 187.893C368.475 187.535 368.765 187.245 369.123 187.245H372.035C372.207 187.245 372.372 187.314 372.493 187.435C372.615 187.557 372.683 187.722 372.683 187.893C372.683 188.065 372.615 188.23 372.493 188.352C372.372 188.473 372.207 188.541 372.035 188.541H369.123C368.951 188.541 368.786 188.473 368.665 188.352C368.543 188.23 368.475 188.065 368.475 187.893ZM375.105 187.893C375.105 187.535 375.395 187.245 375.753 187.245H378.664C378.836 187.245 379.001 187.314 379.122 187.435C379.244 187.557 379.312 187.722 379.312 187.893C379.312 188.065 379.244 188.23 379.122 188.352C379.001 188.473 378.836 188.541 378.664 188.541H375.753C375.581 188.541 375.416 188.473 375.295 188.352C375.173 188.23 375.105 188.065 375.105 187.893Z" fill="#2A3695"/>
<path d="M405.714 214.511H388.785C388.449 214.511 388.116 214.577 387.805 214.706C387.495 214.834 387.212 215.023 386.975 215.261C386.737 215.498 386.548 215.78 386.419 216.091C386.291 216.401 386.224 216.734 386.224 217.07V228.797C386.225 229.476 386.495 230.127 386.975 230.607C387.455 231.086 388.106 231.356 388.785 231.355H405.714C406.393 231.356 407.044 231.086 407.524 230.607C408.005 230.127 408.275 229.476 408.275 228.797V217.07C408.275 216.734 408.209 216.401 408.08 216.091C407.951 215.78 407.762 215.498 407.525 215.261C407.287 215.023 407.005 214.834 406.694 214.706C406.383 214.577 406.05 214.511 405.714 214.511Z" fill="#2A3695"/>
<path fill-rule="evenodd" clip-rule="evenodd" d="M388.785 215.16C388.534 215.159 388.285 215.209 388.053 215.305C387.821 215.401 387.611 215.541 387.433 215.719C387.255 215.896 387.114 216.107 387.018 216.339C386.922 216.571 386.872 216.819 386.872 217.07V228.798C386.872 229.853 387.729 230.708 388.785 230.708H405.714C406.221 230.708 406.707 230.507 407.066 230.149C407.424 229.79 407.626 229.304 407.626 228.798V217.07C407.626 216.819 407.577 216.571 407.481 216.339C407.385 216.107 407.244 215.896 407.066 215.719C406.889 215.541 406.678 215.401 406.446 215.305C406.214 215.209 405.965 215.159 405.714 215.16H388.785ZM385.576 217.07C385.576 216.649 385.659 216.232 385.821 215.843C385.982 215.454 386.219 215.1 386.517 214.803C386.815 214.505 387.168 214.269 387.558 214.108C387.947 213.947 388.364 213.864 388.785 213.865H405.714C406.135 213.864 406.553 213.947 406.942 214.108C407.331 214.269 407.685 214.505 407.983 214.803C408.281 215.1 408.517 215.454 408.679 215.843C408.84 216.232 408.923 216.649 408.923 217.07V228.798C408.923 229.219 408.84 229.636 408.679 230.025C408.517 230.414 408.281 230.768 407.983 231.065C407.685 231.363 407.331 231.599 406.942 231.76C406.553 231.921 406.135 232.004 405.714 232.003H388.785C388.364 232.004 387.947 231.921 387.558 231.76C387.168 231.599 386.815 231.363 386.517 231.065C386.219 230.768 385.982 230.414 385.821 230.025C385.659 229.636 385.576 229.219 385.576 228.798V217.07Z" fill="white"/>
<path fill-rule="evenodd" clip-rule="evenodd" d="M397.25 202.758C396.285 202.758 395.328 202.947 394.436 203.316C393.543 203.685 392.733 204.226 392.049 204.909C391.366 205.591 390.824 206.402 390.455 207.294C390.085 208.186 389.894 209.142 389.894 210.107V214.511H388.597V210.107C388.597 208.971 388.821 207.847 389.256 206.797C389.691 205.748 390.328 204.794 391.132 203.992C391.935 203.189 392.89 202.552 393.939 202.119C394.989 201.685 396.114 201.462 397.25 201.463C398.386 201.462 399.511 201.685 400.561 202.119C401.61 202.553 402.564 203.189 403.368 203.992C404.171 204.795 404.809 205.748 405.244 206.797C405.679 207.847 405.902 208.972 405.902 210.107V214.511H404.605V210.107C404.605 209.142 404.415 208.186 404.045 207.294C403.675 206.402 403.133 205.591 402.45 204.909C401.767 204.227 400.956 203.685 400.064 203.316C399.172 202.947 398.216 202.758 397.25 202.758ZM397.25 219.677C396.895 219.678 396.548 219.783 396.253 219.98C395.958 220.178 395.728 220.458 395.592 220.786C395.457 221.114 395.421 221.475 395.491 221.824C395.56 222.172 395.731 222.491 395.983 222.742C396.234 222.993 396.554 223.164 396.902 223.233C397.25 223.302 397.611 223.266 397.939 223.13C398.267 222.994 398.547 222.764 398.744 222.469C398.941 222.174 399.046 221.826 399.046 221.471C399.046 220.48 398.242 219.677 397.25 219.677ZM394.157 221.471C394.157 220.651 394.483 219.865 395.063 219.285C395.643 218.705 396.43 218.379 397.25 218.379C398.07 218.379 398.856 218.705 399.436 219.285C400.016 219.865 400.342 220.651 400.342 221.471C400.342 222.292 400.016 223.078 399.436 223.658C398.856 224.238 398.07 224.564 397.25 224.564C396.43 224.564 395.643 224.238 395.063 223.658C394.483 223.078 394.157 222.292 394.157 221.471Z" fill="#2A3695"/>
<path fill-rule="evenodd" clip-rule="evenodd" d="M397.249 223.265C397.608 223.265 397.898 223.555 397.898 223.913V227.783C397.898 227.955 397.83 228.12 397.708 228.242C397.587 228.364 397.422 228.432 397.25 228.432C397.078 228.432 396.913 228.364 396.791 228.242C396.669 228.12 396.601 227.955 396.601 227.783V223.913C396.601 223.555 396.891 223.265 397.249 223.265Z" fill="white"/>
<path d="M433.23 258.637L423.093 233.12L448.628 243.251L441.143 246.862L449.351 255.065L444.703 259.049L436.348 250.382L433.23 258.637Z" fill="#2A3695"/>
<path fill-rule="evenodd" clip-rule="evenodd" d="M422.634 232.662C422.724 232.573 422.838 232.512 422.962 232.487C423.086 232.461 423.214 232.472 423.332 232.518L448.868 242.649C448.985 242.696 449.086 242.775 449.159 242.878C449.231 242.981 449.272 243.102 449.277 243.228C449.281 243.354 449.249 243.478 449.184 243.586C449.119 243.694 449.023 243.78 448.91 243.834L442.247 247.049L449.81 254.607C449.873 254.671 449.922 254.746 449.954 254.829C449.987 254.912 450.001 255.001 449.998 255.09C449.995 255.18 449.973 255.267 449.934 255.347C449.895 255.428 449.841 255.499 449.773 255.557L445.125 259.541C444.999 259.649 444.837 259.704 444.672 259.696C444.507 259.688 444.351 259.617 444.236 259.498L436.593 251.57L433.836 258.866C433.79 258.989 433.708 259.095 433.601 259.17C433.494 259.245 433.366 259.285 433.235 259.287C433.104 259.288 432.976 259.249 432.868 259.176C432.759 259.103 432.675 258.999 432.627 258.877L422.49 233.359C422.443 233.242 422.432 233.113 422.458 232.989C422.483 232.866 422.545 232.752 422.634 232.662ZM424.249 234.276L433.215 256.843L435.742 250.154C435.78 250.052 435.844 249.961 435.927 249.89C436.01 249.818 436.11 249.77 436.217 249.747C436.325 249.725 436.436 249.731 436.54 249.763C436.645 249.796 436.739 249.854 436.815 249.933L444.745 258.159L448.398 255.029L440.685 247.32C440.612 247.248 440.557 247.158 440.525 247.06C440.493 246.961 440.486 246.856 440.503 246.754C440.52 246.652 440.562 246.556 440.624 246.473C440.686 246.391 440.768 246.324 440.861 246.279L447.017 243.309L424.249 234.276Z" fill="white"/>
<path d="M174.567 16.6154L178.373 36.8315C180.541 48.2371 178.949 60.0384 173.835 70.4614C168.858 80.7192 160.795 89.1616 150.776 94.6044C150.692 94.6473 150.597 94.6654 150.503 94.6564C139.199 93.2114 128.629 88.2701 120.271 80.5235C111.724 72.6642 105.956 62.2444 103.835 50.8284L100.032 30.6124C100.011 30.5005 100.033 30.3847 100.093 30.2878C100.153 30.1909 100.247 30.1199 100.356 30.0884C104.174 28.9612 107.491 26.5595 109.753 23.2834C112.014 20.0093 113.083 16.0588 112.782 12.0914C112.771 11.9799 112.801 11.868 112.867 11.7773C112.933 11.6865 113.03 11.6232 113.139 11.5994L155.431 3.65745C155.543 3.63539 155.66 3.65651 155.757 3.71658C155.854 3.77665 155.926 3.87124 155.956 3.98145C157.117 7.79165 159.549 11.0885 162.847 13.3214C166.147 15.5553 170.113 16.5908 174.084 16.2554C174.194 16.2478 174.304 16.2799 174.392 16.3459C174.481 16.412 174.543 16.5076 174.567 16.6154Z" fill="white"/>
<path fill-rule="evenodd" clip-rule="evenodd" d="M155.384 4.32543L113.44 12.2014C113.712 16.2646 112.601 20.3003 110.287 23.6514C107.973 27.0017 104.595 29.472 100.701 30.6614L104.472 50.7104C106.568 61.9885 112.266 72.2824 120.71 80.0464L120.711 80.0484C128.954 87.688 139.375 92.5667 150.521 94.0054C160.396 88.6262 168.343 80.2956 173.251 70.1784L173.252 70.1754C178.305 59.8784 179.878 48.2195 177.736 36.9514L173.964 16.9154C169.902 17.2188 165.857 16.1412 162.484 13.8574C159.109 11.5729 156.607 8.21331 155.384 4.32543ZM174.567 16.6154L175.2 16.4754C175.144 16.2149 174.995 15.9837 174.781 15.8245C174.567 15.6653 174.303 15.5889 174.037 15.6094L174.03 15.6104C170.207 15.9335 166.388 14.9364 163.211 12.7854C160.037 10.6372 157.696 7.46541 156.578 3.79943C156.503 3.53434 156.33 3.30727 156.095 3.16319C155.86 3.01911 155.58 2.96852 155.309 3.02143H155.306L113.019 10.9614L113.003 10.9654C112.739 11.0217 112.504 11.1734 112.344 11.3915C112.184 11.6097 112.11 11.8792 112.136 12.1484C112.424 15.9655 111.395 19.7658 109.219 22.9154C107.042 26.0685 103.85 28.3803 100.175 29.4654C99.9108 29.5416 99.6843 29.7137 99.54 29.948C99.3957 30.1823 99.3441 30.462 99.3952 30.7324V30.7344L103.197 50.9464C105.344 62.5 111.181 73.0454 119.831 80.9994C128.294 88.8424 138.997 93.843 150.442 95.3014C150.658 95.3214 150.876 95.2814 151.07 95.1814L151.086 95.1734C161.223 89.6658 169.382 81.1235 174.418 70.7444C179.593 60.196 181.204 48.2531 179.01 36.7104L175.204 16.4954L174.567 16.6154Z" fill="white"/>
<path d="M168.382 67.1024C164.271 75.5724 157.613 82.5438 149.34 87.0394C149.272 87.0758 149.193 87.0904 149.116 87.0814C139.775 85.8965 131.038 81.8199 124.128 75.4224C117.061 68.9302 112.294 60.3181 110.545 50.8824L107.404 34.1884C107.387 34.0955 107.405 33.9997 107.455 33.9195C107.505 33.8392 107.582 33.7804 107.673 33.7544C110.826 32.8229 113.564 30.8394 115.432 28.1344C117.299 25.4308 118.182 22.1685 117.933 18.8924C117.926 18.7992 117.952 18.7065 118.009 18.6318C118.065 18.5571 118.147 18.5057 118.238 18.4874L134.048 15.5174L153.175 11.9294C153.267 11.9128 153.363 11.9306 153.443 11.9795C153.523 12.0283 153.582 12.1048 153.609 12.1944C154.568 15.3387 156.577 18.0589 159.299 19.9014C162.023 21.7442 165.296 22.5983 168.573 22.3214C168.67 22.313 168.766 22.3418 168.842 22.4021C168.918 22.4623 168.968 22.5494 168.982 22.6454L172.123 39.3414C173.914 48.756 172.601 58.4976 168.382 67.1024Z" fill="#2A3695"/>
<path d="M149.34 87.0326C149.272 87.0691 149.193 87.0838 149.116 87.0746C139.775 85.8899 131.038 81.8137 124.128 75.4166C117.063 68.9261 112.296 60.3167 110.545 50.8836L107.404 34.1886C107.387 34.0958 107.405 33.9999 107.455 33.9197C107.505 33.8394 107.582 33.7806 107.673 33.7546C110.826 32.8231 113.564 30.8397 115.432 28.1346C117.299 25.431 118.182 22.1687 117.933 18.8926C117.926 18.7994 117.952 18.7067 118.009 18.632C118.065 18.5573 118.147 18.5059 118.238 18.4876L134.048 15.5176L135.397 15.6926L149.34 87.0326Z" fill="#0B1846"/>
<path d="M155.986 40.6305C155.95 40.6885 155.914 40.7465 155.875 40.8015L143.482 60.1915C142.988 60.9614 142.21 61.5043 141.317 61.7015C140.423 61.899 139.488 61.7335 138.717 61.2415L130.349 55.9065C129.578 55.4148 129.034 54.6371 128.837 53.7445C128.639 52.8519 128.804 51.9174 129.296 51.1465L129.354 51.0585C129.847 50.2882 130.625 49.7447 131.518 49.5475C131.96 49.4501 132.417 49.4407 132.863 49.52C133.309 49.5992 133.734 49.7656 134.116 50.0095L139.235 53.2695C139.326 53.3279 139.436 53.3481 139.541 53.3258C139.647 53.3036 139.739 53.2406 139.799 53.1505L150.06 37.0965C150.401 36.4922 150.916 36.0048 151.538 35.6977C152.16 35.3907 152.86 35.2784 153.547 35.3755C154.003 35.4399 154.441 35.5945 154.837 35.8305C155.232 36.0664 155.577 36.3788 155.85 36.7495C156.123 37.1201 156.318 37.5417 156.425 37.9894C156.532 38.437 156.549 38.9015 156.473 39.3555C156.397 39.8097 156.232 40.2442 155.986 40.6335V40.6305Z" fill="white"/>
<path fill-rule="evenodd" clip-rule="evenodd" d="M153.412 36.3375C152.919 36.268 152.416 36.3488 151.969 36.5693C151.522 36.7897 151.152 37.1397 150.907 37.5735C150.898 37.5891 150.889 37.6045 150.879 37.6195L140.619 53.6735L139.799 53.1505L140.614 53.6805C140.415 53.9862 140.103 54.2007 139.746 54.2772C139.39 54.3536 139.017 54.2858 138.71 54.0885L133.592 50.8275C133.317 50.6515 133.009 50.5317 132.688 50.4751C132.366 50.4185 132.036 50.4262 131.717 50.4978C131.398 50.5694 131.097 50.7035 130.83 50.8922C130.563 51.0809 130.337 51.3207 130.163 51.5975L130.111 51.6755C129.761 52.2294 129.645 52.8994 129.788 53.5388C129.931 54.1782 130.321 54.735 130.873 55.0875L139.24 60.4215C139.653 60.6859 140.135 60.8217 140.625 60.8117C141.115 60.8017 141.591 60.6464 141.993 60.3655C142.26 60.1795 142.487 59.9426 142.662 59.6685L155.056 40.2785C155.091 40.2279 155.125 40.1763 155.156 40.1235C155.336 39.8437 155.457 39.5304 155.513 39.2025C155.568 38.8746 155.557 38.5389 155.479 38.2155C155.364 37.7308 155.105 37.2923 154.736 36.9573C154.367 36.6222 153.906 36.4062 153.412 36.3375ZM156.684 41.3415L144.302 60.7135C143.83 61.4501 143.151 62.0305 142.35 62.3817C141.549 62.7328 140.662 62.8389 139.8 62.6865C139.229 62.5847 138.683 62.3717 138.193 62.0595M138.193 62.0595L129.826 56.7255C128.839 56.0948 128.142 55.0979 127.889 53.9538C127.635 52.8097 127.847 51.6119 128.476 50.6235L128.487 50.6065L128.54 50.5265C129.171 49.5424 130.166 48.8489 131.308 48.5985C131.875 48.4735 132.461 48.4614 133.033 48.563C133.605 48.6646 134.151 48.8778 134.64 49.1905L139.285 52.1505L149.226 36.5945C149.518 36.0869 149.907 35.6421 150.372 35.2856C150.836 34.9292 151.366 34.6681 151.932 34.5175C152.81 34.2844 153.738 34.327 154.591 34.6397C155.443 34.9524 156.179 35.5198 156.698 36.2651C157.217 37.0104 157.494 37.8974 157.492 38.8055C157.489 39.7137 157.207 40.5991 156.684 41.3415M274.012 1.2965C273.784 1.29098 273.556 1.33122 273.344 1.41485C273.131 1.49848 272.937 1.62381 272.774 1.78347C272.61 1.94313 272.48 2.13389 272.391 2.34453C272.303 2.55517 272.257 2.78143 272.257 3.01C272.257 3.23857 272.303 3.46483 272.391 3.67547C272.48 3.88611 272.61 4.07687 272.774 4.23653C272.937 4.39619 273.131 4.52152 273.344 4.60515C273.556 4.68878 273.784 4.72902 274.012 4.7235C274.241 4.72902 274.468 4.68878 274.681 4.60515C274.893 4.52152 275.087 4.39619 275.251 4.23653C275.414 4.07687 275.544 3.88611 275.633 3.67547C275.722 3.46483 275.768 3.23857 275.768 3.01C275.768 2.78143 275.722 2.55517 275.633 2.34453C275.544 2.13389 275.414 1.94313 275.251 1.78347C275.087 1.62381 274.893 1.49848 274.681 1.41485C274.468 1.33122 274.241 1.29098 274.012 1.2965ZM271 3.0115C271 2.61605 271.078 2.22448 271.23 1.85916C271.381 1.49384 271.603 1.16193 271.883 0.882401C272.162 0.602871 272.494 0.381197 272.86 0.230048C273.225 0.0788994 273.617 0.00123733 274.012 0.00150009C274.415 -0.0112298 274.817 0.0571673 275.193 0.20263C275.569 0.348092 275.912 0.567654 276.202 0.848277C276.491 1.1289 276.722 1.46486 276.879 1.83621C277.036 2.20756 277.117 2.60672 277.117 3.01C277.117 3.41328 277.036 3.81244 276.879 4.18379C276.722 4.55514 276.491 4.8911 276.202 5.17172C275.912 5.45235 275.569 5.67191 275.193 5.81737C274.817 5.96283 274.415 6.03123 274.012 6.0185C273.214 6.01903 272.448 5.70255 271.884 5.13866C271.319 4.57477 271.001 3.80963 271 3.0115Z" fill="white"/>
<path d="M182.565 125.201L183.171 125.504L180.444 128.535L178.625 131.565L177.11 135.505L176.2 140.657V150.356L177.11 157.63L178.928 166.419L181.353 175.511L184.383 184.603V185.513L185.899 186.119L191.051 189.756L194.082 192.483L197.113 195.817L199.537 198.848L202.871 203.091L206.205 207.031L207.417 208.546V209.152L209.539 207.94H210.751V208.849L183.474 227.034L184.08 228.246L188.323 234.004L188.93 234.914L190.445 234.611L191.96 233.398H192.566V232.792L195.294 230.974L197.113 229.458H197.719V228.852L201.053 226.428H201.659V225.821L202.871 225.518V224.912L204.083 224.609V224.003L207.417 221.578L208.629 220.669H209.236V220.063L211.054 218.851L215.903 215.214L216.206 214.305L214.994 213.698L212.266 210.971L213.176 207.94L218.631 195.211L221.965 187.634L226.814 177.026L229.239 172.177L230.451 169.45L230.754 167.934L233.178 163.085L235.906 157.933L238.937 152.78L240.452 150.356L243.483 145.81L247.12 140.657L250.151 137.021L252.272 134.596L255 132.171L256.212 130.959L260.455 128.231L264.092 126.716L267.123 127.625L273.184 130.05L279.246 133.081L285.61 137.324L288.944 140.051L291.975 142.779L297.127 146.719L299.855 149.447L302.886 153.69L305.31 158.539L307.129 163.085L308.947 170.359L310.159 178.239L310.463 181.27V199.454L309.553 209.152L307.735 221.275L305.007 234.914L302.28 254.311L299.855 268.252L297.43 280.375L293.793 295.529L291.369 304.621V305.53L290.46 307.652L288.035 310.379L284.701 312.501L280.458 314.319L275.306 315.835L268.638 317.047L260.152 317.956L252.575 318.259H244.089L240.452 317.956V327.352L239.846 332.504L243.18 333.413L248.938 335.231L251.06 335.838L262.577 332.807L267.426 331.291L270.457 328.867L274.094 326.442L280.155 322.502L283.489 320.381L288.338 317.35L295.309 313.107H296.218L295.612 314.319L290.157 317.35L286.823 319.472L275.912 326.745L271.972 329.473L270.457 330.382L272.578 330.079L289.853 325.533L304.401 321.593L338.345 312.501H339.861V313.41L333.496 315.229L307.432 322.199L227.117 343.718L182.868 355.537L172.867 358.265H171.351L173.473 360.69L177.11 364.63L179.231 367.054L182.868 370.994L186.202 374.631L188.93 377.965L191.354 380.39L193.476 382.814L197.113 386.754L198.022 387.966V388.876L196.81 388.573L194.082 385.239L191.354 382.511L189.233 380.087L185.899 376.45L183.777 374.025L180.747 370.691L178.625 368.267L174.988 364.327L173.17 362.508L174.079 365.236L178.322 374.934L181.656 382.814L185.596 391.906L190.142 402.514L192.566 408.272L194.688 413.122L196.506 417.062L196.203 418.274H195.294L192.87 412.212L188.02 401.302L183.474 390.694L179.231 380.996L171.957 364.024L169.533 358.265L171.048 357.356L181.959 354.325L241.058 338.565L247.726 336.747L248.029 336.444L241.665 334.322L231.663 331.291L218.328 327.048L206.508 323.412L201.053 321.593L194.688 319.775L178.322 314.622L168.321 311.592L164.987 310.379L164.684 309.47L167.108 309.773L183.474 314.925L195.294 318.562L204.689 321.593L212.872 324.018L226.511 328.261L237.422 331.595L238.937 331.898L239.24 327.048V317.956L232.875 317.653L223.177 316.744L213.479 315.229L209.236 314.319L205.296 313.713L195.597 311.289L188.627 309.167L181.959 306.439L177.11 304.015L172.26 300.984L171.351 300.378L170.139 296.438L166.199 279.466L165.896 276.738H165.29L164.381 279.466L159.531 289.164L157.41 292.801L154.985 295.832L151.348 299.469L147.105 302.196L146.196 302.802L143.771 302.499L125.89 296.741L113.767 293.104L111.949 292.195L109.221 288.558L105.584 282.496L101.947 275.829L98.3103 267.949L94.3703 257.947L90.1273 245.824L86.4904 233.095L85.5811 230.368L88.0057 228.549L90.7334 227.034L94.3703 224.912L97.7041 222.791L101.038 220.972L104.069 219.154L109.827 215.82L112.555 214.002L115.889 212.183L119.526 210.062L121.041 210.365L123.769 214.002L125.284 205.819V204.909H100.432L98.3103 205.515L97.4011 206.425L96.1888 206.728V205.515L97.098 204L99.2195 201.576L100.432 197.029L99.8256 193.089L99.5226 191.574L85.8842 195.514H84.0658V194.605L89.5211 192.786L102.553 189.149L103.463 187.634V185.209L101.947 183.694L101.038 183.088H98.0072L84.3688 187.028L82.2473 187.634L80.7319 187.331L81.035 186.422L94.3703 182.482L99.5226 181.27L101.341 181.573L102.25 182.179L105.584 181.573L108.615 180.36L109.827 178.542L110.13 176.42L108.615 173.996L105.281 173.693L81.035 180.057H79.5196L79.2166 179.148L86.4904 177.026L104.978 172.177H108.615L108.918 170.056L108.009 167.934L106.493 166.722L105.887 166.419H99.8256L99.2195 166.722L93.4611 167.631L88.0057 169.147L81.035 172.177L78.3073 173.996H77.0951L77.7012 172.783L80.1258 170.965L81.9442 170.056L83.1565 167.328L83.7627 167.025L88.6119 167.328L92.8549 166.116L99.2195 165.207L99.5226 164.297L98.9164 161.873L97.4011 160.66L95.5826 160.054L82.2473 158.539H78.9135L77.7012 159.145L75.2766 163.994L74.3674 163.085L71.9428 158.236L66.4874 147.628L63.7598 141.87L64.3659 140.051L65.8813 138.839L66.7905 138.536H97.4011L99.8256 139.748L101.947 142.779L105.584 150.356L111.342 161.873L114.676 168.843L120.132 179.754L123.465 186.725L127.405 194.605L128.012 194.908L129.224 190.059L132.861 178.845H125.587L122.556 178.239L121.344 176.723L121.041 175.814V173.39L122.253 171.571L123.465 170.965L129.527 170.359L136.801 170.056L137.104 168.843L140.741 160.963L144.378 153.993L148.924 146.416L152.864 140.657L154.985 137.627L157.713 134.596L160.441 132.171L163.774 130.05L168.017 128.231L174.685 126.716L182.565 125.201Z" fill="#F4D9CC"/>
<path d="M356.227 291.285H364.713L373.805 292.195L380.17 293.407L386.232 295.225L391.384 297.347L396.536 300.378L399.87 302.802L403.507 306.136L406.538 310.076L409.265 315.228L410.781 320.381L411.387 324.321V329.776L410.477 335.231L408.962 340.383L406.538 345.839L404.416 349.173L401.082 353.416L398.051 356.446L392.899 360.386L386.535 363.72L377.442 366.751L368.956 369.176L368.047 370.085L364.713 370.691L367.441 374.025L369.562 376.752L371.987 380.692L374.412 386.754L375.624 391.906L375.927 394.331V400.998L375.018 405.848L373.199 410.394L370.472 414.334L368.35 416.455L364.107 419.183L361.379 420.395L360.167 420.698L339.558 421.001H326.223L325.92 419.789L351.984 419.486L354.409 418.577L357.742 415.243L359.258 412.818L360.773 408.878L361.682 404.029V400.392L360.773 394.634L358.652 388.269L355.015 381.299L351.984 377.056L350.772 375.54V374.934L343.801 377.056L340.164 377.965L334.103 379.783L329.253 380.995L295.006 390.694L289.551 392.209L282.277 394.331L237.422 407.06L234.391 407.666L233.179 407.969L230.754 408.272L197.416 417.668L196.507 417.971L192.264 408.272L188.93 400.392L180.141 380.086L176.807 372.206L172.867 363.114L173.17 362.205L177.716 366.751L179.838 369.176L182.868 372.509L184.99 374.934L188.324 378.571L190.445 380.995L194.082 384.935L196.81 387.966V388.572L198.022 388.875L196.81 386.754L194.385 384.329L192.264 381.905L188.627 377.965L184.687 373.419L177.413 365.539L174.685 362.508L172.564 360.083L171.352 358.871V358.265L184.081 354.931L205.599 349.173L218.934 345.536L231.663 342.202L247.423 337.959L268.942 332.2L338.043 313.713L339.861 313.41V312.501L331.375 314.622L312.281 319.774L273.791 330.079L271.669 330.685H270.154L271.063 329.776L274.094 327.654L286.823 319.168L295.915 313.713L295.612 313.107L292.885 314.925L286.823 318.562L276.822 324.927L270.154 329.473L267.426 331.594L260.152 333.716L251.06 336.14L243.18 333.716L239.846 332.504L240.15 327.351L240.453 317.956H252.576L260.152 317.653L268.639 316.744L276.518 315.228L282.883 313.107L286.823 310.985L289.551 308.561L290.763 306.742L291.066 305.53L290.763 304.924L291.672 305.227L295.309 311.894L296.824 311.288L304.401 307.045L312.887 302.802L321.374 299.165L328.95 296.438L337.436 294.013L345.013 292.498L352.287 291.588L356.227 291.285Z" fill="#2A3695"/>
<path d="M164.715 307.77C164.92 307.652 168.909 301.898 168.909 301.898L170.442 296.438L171.351 299.469V300.378L172.867 300.984L177.11 303.712L181.959 306.136L189.536 309.167L198.931 311.895L206.508 313.713L210.448 314.319L218.934 315.835L228.936 317.047L239.24 317.956L239.543 319.168V327.048L239.24 330.988L238.937 331.898L236.512 331.595L224.693 327.958L201.053 320.684L184.687 315.532L171.958 311.592L164.684 309.47L165.593 310.379L172.261 312.501L186.202 316.744L195.597 319.775L203.78 322.199L217.116 326.442L230.754 330.685L240.452 333.716L245.605 335.231L248.332 336.444L247.726 337.05L174.079 356.75L170.139 357.962L169.533 359.174L156.804 362.205L153.773 362.508L155.288 373.116L161.653 373.722L166.502 375.237L171.351 377.662L174.685 380.39L176.807 382.511L178.928 385.542L181.353 390.391L182.565 394.331L182.868 396.149V403.423L181.656 408.272L179.534 412.515L176.807 415.546L174.079 417.668L171.048 419.183L167.714 420.092L164.684 420.395L114.676 420.698L112.858 421.002H100.129L80.1259 420.698L76.489 419.183L73.4583 417.365L70.4275 414.637L68.0029 411.303L66.1845 407.666L64.9722 403.12L64.6691 401.302V393.422L65.8814 387.663L67.6999 382.814L70.4275 377.662L72.8521 374.328L75.5798 371.297L77.7013 369.176L81.9444 366.145H82.8536V365.539L80.1259 364.63L72.8521 361.599L67.0937 358.568L62.2445 354.931L58.0015 350.688L54.6676 346.142L51.6369 340.384L49.5154 334.019L48.3031 327.351L48 324.018V319.775L48.6061 314.319L49.8184 309.167L52.243 304.318L54.6676 300.984L58.6076 297.044L62.5476 294.316L68.306 291.286L73.7613 289.467L79.2167 288.255L83.7628 287.649H93.1581L100.735 288.861L107.706 290.679L117.707 294.013L132.558 298.559L144.681 302.499H146.196L148.359 301.898C148.359 301.898 147.939 303.995 149.197 303.712C149.456 303.653 164.485 307.901 164.715 307.77Z" fill="#2A3695"/>
<path d="M198.022 7.00146L199.234 7.60761L200.749 9.72914L204.083 11.8507L208.326 13.063L212.569 13.6691L225.602 14.2753L230.451 14.8814L234.391 16.0937L237.118 17.9122L238.937 20.0337L239.846 22.4583V28.2167L240.149 27.9136L241.058 24.5798V21.246L240.149 18.2152L238.331 15.7906L236.512 14.5783L231.966 12.4568V11.5476L234.391 11.8507L238.331 13.9722L240.149 15.4876L241.968 18.5183L242.574 20.6398V24.8829L241.968 27.0044L245.301 25.1859L246.817 24.8829H251.06L252.272 25.489V26.3982H246.817L243.18 27.9136L242.877 28.2167H245.604L249.241 29.1259L252.272 30.9444L255.303 33.9751L257.727 38.8243L258.637 42.4612L258.94 44.5827V49.4319L258.031 55.1903L255.909 60.6457L253.484 65.1918L250.151 69.7379L246.817 73.3748L247.12 77.3148L246.211 80.3455L244.392 82.7701L242.271 84.5886L238.634 86.104L235.603 86.407L235.906 87.6193L236.512 98.8331V104.288L232.875 107.622L228.329 110.653L223.177 113.381L218.328 115.199L215.6 115.805H213.782L216.206 120.351L219.843 128.231L221.055 131.262L222.571 135.808V136.414L225.602 134.899L228.632 133.687L231.966 131.565H232.572V130.959L235.3 129.141L239.24 125.504L239.846 124.898H240.755L240.452 126.11L237.725 128.837L233.482 132.171L229.238 134.899L224.692 137.02L222.874 137.627H221.662L219.54 131.565L216.206 123.988L213.175 117.927L212.266 118.23L208.326 124.898L204.992 131.262L201.356 140.051L199.537 146.416L198.022 153.083L197.416 158.539L196.203 158.842L195.9 158.236L196.506 151.871L197.719 146.719L198.931 142.173L199.537 140.657L199.234 139.142L195.597 133.384L192.263 127.928L191.051 128.534L187.717 133.081L185.596 137.324L184.08 141.567L183.171 144.294L181.959 143.991L182.262 141.87L184.08 136.717L186.505 132.171L189.233 128.534L191.96 125.807H192.566L195.9 130.959L198.931 135.808L200.143 137.93L200.749 138.233L199.234 131.565L196.203 120.351L194.991 116.411V114.896L188.626 114.29L183.777 112.775L180.14 110.653L178.019 108.835L176.503 106.41L175.897 104.592L175.594 102.47V97.6208L176.2 91.5593L177.413 84.2855L180.14 73.3748L183.777 62.4641L187.111 54.8873L190.445 46.7042L193.173 41.2489L193.476 40.0366H192.566V39.1274L194.991 38.5212L195.294 36.7028L197.113 33.0659L196.809 31.5505L194.688 28.8228L193.173 25.1859L192.566 21.8521V18.2152L193.476 13.6691L194.991 10.3353L197.113 7.91069H197.719L198.022 7.00146Z" fill="#0B1846"/>
<path d="M236.815 103.985H237.422L239.543 110.047L242.574 117.927L243.483 120.958L248.332 122.473L255.909 124.291L260.758 125.807L263.486 126.716L262.577 127.625L258.334 129.747L255.909 131.565H255.303L254.697 132.777L252.272 134.899L249.848 137.627L246.514 141.87L244.392 144.9L240.755 150.356L238.937 153.387L234.694 160.66L231.36 167.025L230.754 168.237L230.451 170.359L228.026 175.208L224.389 182.785L219.54 193.695L214.388 205.818L212.569 210.365L213.176 211.577L215.6 214.001L216.206 214.305L215.903 215.517L210.751 219.457L209.236 220.063V220.669L205.902 223.094L204.69 224.003H204.083V224.609L202.871 224.912V225.518L201.659 225.821V226.428L198.325 228.852H197.719V229.458L193.173 232.792H192.567V233.398L191.354 233.701L191.051 234.611L190.142 235.217L188.627 234.914L184.384 229.155L183.171 227.64L183.777 226.428L188.93 223.094L208.933 209.758L210.145 208.849H210.751V207.94L208.63 208.849L207.417 209.152L205.599 206.728L201.962 202.485L198.931 198.545L194.688 193.392L191.96 190.665L186.808 187.028L184.384 185.512L180.747 174.602L177.716 162.479L176.201 153.387L175.897 150.356V140.657L176.807 135.505L178.322 131.565L180.141 128.534L182.868 125.504L185.293 123.988L190.142 122.17L194.991 120.654H196.203L197.416 123.685L200.143 133.687L200.75 136.414V138.233L199.84 137.93L197.113 133.384L194.082 128.534L192.567 126.413V125.807L190.142 127.928L188.324 130.05L186.202 133.081L183.777 138.233L182.262 142.779V143.991L183.171 144.294L183.777 141.567L185.293 137.324L187.414 133.081L190.142 129.444L191.657 127.625L192.567 127.928L196.203 133.99L198.931 138.233L199.84 139.748L199.537 141.567L198.628 144.294L198.022 146.719L196.81 151.871L196.203 158.539H197.113L198.022 151.568L199.537 144.9L201.962 137.627L205.599 129.444L208.63 123.685L212.266 117.927H213.479L217.419 125.807L220.753 133.99L221.662 136.717V137.627L226.208 136.111L231.36 133.384L236.209 129.747L240.149 126.11L240.755 124.898L239.24 125.807L236.815 128.231L233.179 130.959H232.572V131.565L227.42 134.596L223.783 136.111L222.571 136.414L221.359 133.384L220.449 130.353L216.813 122.17L213.782 116.411V115.805L219.237 114.593L224.996 112.168L229.845 109.441L233.482 106.713L236.815 103.985Z" fill="#F4D9CC"/>
<path d="M182.565 125.201L183.171 125.504L180.444 128.535L178.625 131.565L177.11 135.505L176.201 140.657V150.356L177.11 157.63L178.928 166.419L181.353 175.511L184.384 184.603V185.513L185.899 186.119L191.051 189.756L194.082 192.483L197.113 195.817L199.537 198.848L202.871 203.091L206.205 207.031L207.72 209.152L206.205 210.365L200.447 214.305L187.717 222.791L185.293 224.306H184.384L182.868 220.366L179.838 214.608L178.322 210.971L174.382 210.365L168.624 208.849L163.775 206.728L161.35 205.515L160.138 203.697L158.925 202.182L157.41 202.788L154.379 204.606L151.955 205.819H151.348L150.742 207.031L149.227 207.334L147.105 206.425L145.893 205.212L145.287 203.697V201.576L146.802 198.848L149.833 197.332L156.804 194.302L157.107 193.392L153.773 194.605L147.712 197.332L147.105 198.242L145.893 198.545H142.256L140.438 197.029L139.832 195.514V193.392L141.044 191.271L141.953 190.059L139.529 190.968L137.104 190.665L135.589 189.756L134.679 187.937V185.816L136.801 183.391L141.044 180.663L142.862 180.057V179.451L145.59 178.845L148.924 177.33L148.621 176.42L143.469 178.845H125.587L122.556 178.239L121.344 176.723L121.041 175.814V173.39L122.253 171.571L123.466 170.965L129.527 170.359L136.801 170.056L137.104 168.843L140.741 160.963L144.378 153.993L148.924 146.416L152.864 140.657L154.985 137.627L157.713 134.596L160.441 132.171L163.775 130.05L168.018 128.231L174.685 126.716L182.565 125.201Z" fill="#F7F6F8"/>
<path d="M349.863 374.934H350.772L353.196 378.268L356.227 382.814L359.258 389.179L360.47 392.512L361.379 396.149L361.986 400.392V404.029L361.076 408.878L359.258 413.425L357.136 416.152L354.409 418.88L351.984 419.789H325.92V420.395H275.306L270.457 419.486L265.608 417.061L261.971 413.728L260.152 412.818L240.756 408.878L236.816 407.969L234.391 407.666V407.363L237.422 406.757L254.394 401.908L276.822 395.543L280.458 394.634L283.186 393.725L295.915 390.088L314.403 384.936L327.132 381.299L332.284 379.783L335.921 378.874L340.164 377.662L348.044 375.54L349.863 374.934Z" fill="#2A3695"/>
<path d="M66.7905 138.536H97.4011L99.8256 139.748L101.947 142.779L105.584 150.356L111.342 161.873L114.676 168.843L120.132 179.754L123.465 186.725L127.709 195.211L130.739 200.666L130.436 202.788L128.921 204.606L128.315 204.909H100.432L98.3103 205.515L97.4011 206.425L96.1888 206.728V205.515L97.098 204L99.2195 201.575L100.432 197.029L99.8256 193.089L99.5226 191.574L85.8842 195.514H84.0658V194.605L89.5211 192.786L102.553 189.149L103.463 187.634V185.209L101.947 183.694L101.038 183.088H98.0072L84.3688 187.028L82.2473 187.634L80.7319 187.331L81.035 186.422L94.3703 182.482L99.5226 181.269L101.341 181.572L102.25 182.179L105.584 181.572L108.615 180.36L109.827 178.542L110.13 176.42L108.615 173.996L105.281 173.693L81.035 180.057H79.5196L79.2166 179.148L86.4904 177.026L104.978 172.177H108.615L108.918 170.056L108.009 167.934L106.493 166.722L105.887 166.419H99.8256L99.2195 166.722L93.4611 167.631L88.0057 169.146L81.035 172.177L78.3073 173.996H77.0951L77.7012 172.783L80.1258 170.965L81.9442 170.056L83.1565 167.328L83.7627 167.025L88.6119 167.328L92.8549 166.116L99.2195 165.206L99.5226 164.297L98.9164 161.873L97.4011 160.66L95.5826 160.054L82.2473 158.539H78.9135L77.7012 159.145L75.2766 163.994L74.3674 163.085L71.9428 158.236L66.4874 147.628L63.7598 141.87L64.3659 140.051L65.8813 138.839L66.7905 138.536Z" fill="#0B1846"/>
<path d="M78.9138 158.236H82.2476L95.5829 159.751L98.0075 160.66L99.5229 162.479L99.8259 164.903L99.2198 165.51L92.8552 166.419L88.6122 167.631L83.4599 167.328L81.9445 170.359L78.6107 172.177L77.0953 173.996L79.2169 173.086L82.2476 171.268L88.9152 168.54L94.6737 167.025L99.2198 166.419L99.8259 166.116H105.887L107.706 167.328L108.918 168.843L109.221 170.662L108.615 172.48H104.978L92.2491 175.814L79.823 179.148H79.2169L79.5199 179.754L82.2476 179.451L105.281 173.39L108.615 173.693L109.827 175.208L110.434 176.42L110.13 178.542L108.918 180.36L106.494 181.573L103.16 182.482L101.947 182.179L100.432 181.573L96.7952 182.179L81.9445 186.422L81.0353 186.725V187.331L83.4599 187.028L96.7952 183.088L98.0075 182.785H101.038L103.463 184.603L103.766 185.209V187.634L102.554 189.453L86.4906 193.999L84.0661 194.908V195.211L86.7937 194.908L98.6136 191.574H99.5229L100.432 194.302L100.735 197.029L99.5229 201.576L98.0075 203.091L96.4921 205.515L96.189 206.425L98.0075 206.122L98.6136 204.909L102.251 204.606L105.584 204.909L107.403 207.334V207.94L110.13 207.031L113.161 206.122H114.677L114.374 207.031L108.312 209.455L83.4599 218.548L82.2476 219.154H80.7322L81.3384 217.942L82.5507 217.335L82.2476 215.517L79.2169 207.94L74.6707 197.332L72.8523 191.877L71.64 185.209L71.3369 181.876V174.905L72.5492 170.965L75.58 162.479L77.3984 159.145L78.9138 158.236Z" fill="#F7F6F8"/>
<path d="M197.416 32.1567L200.75 34.2783L205.296 36.7029L213.479 39.4305L221.965 41.249L231.663 42.4613L232.269 42.7644L231.966 48.5228V65.495L228.026 68.5257L223.783 71.5564L212.873 79.4364L208.63 82.4671L205.902 84.5887H204.69V80.6487L203.78 75.1933L202.265 71.5564L200.447 69.1319L197.416 67.3134L194.082 66.4042H190.142L187.111 67.6165L185.293 69.1319L184.081 70.3442V66.4042L184.384 60.9488L187.111 54.8873L190.445 46.7043L193.173 41.249L193.476 40.0367H192.567V39.1275L194.991 38.5213L195.294 36.7029L197.416 32.1567Z" fill="#F7F6F8"/>
<path d="M182.565 125.201L183.171 125.504L180.444 128.535L178.625 131.565L177.11 135.505L176.2 140.657V150.356L177.11 157.63L178.928 166.419L181.353 175.511L184.08 183.694V184.906L182.565 184.3L166.199 176.117L158.622 173.086L152.561 171.268L148.015 170.662L140.135 170.359L136.801 170.056L137.104 168.843L140.741 160.963L144.378 153.993L148.924 146.416L152.864 140.657L154.985 137.627L157.713 134.596L160.441 132.171L163.774 130.05L168.017 128.231L174.685 126.716L182.565 125.201Z" fill="#F4D9CC"/>
<path d="M93.7641 370.994L95.2795 371.297L100.735 374.328L104.069 377.056L107.099 380.086L110.13 384.329L112.555 389.179L114.07 393.119L115.585 399.483L116.192 404.332V411L115.585 416.152L114.676 419.486H87.0964L84.0657 416.758L81.9442 414.334L80.1257 410.697L78.9134 406.757L78.6104 403.726V400.695L79.5196 394.937L81.0349 390.088L83.1565 385.239L85.8841 380.389L88.9149 376.146L92.2487 372.51L93.7641 370.994Z" fill="#FEFDFD"/>
<path d="M349.863 374.934H350.772L353.196 378.268L356.227 382.814L359.258 389.179L360.47 392.512L361.379 396.149L361.986 400.392V404.029L361.076 408.878L359.258 413.425L357.136 416.152L354.409 418.88L353.196 419.486H325.92L324.707 414.031L324.404 411V404.635L325.314 397.968L327.132 391.3L330.466 384.329L333.497 380.086L335.012 379.177L340.164 377.662L348.044 375.54L349.863 374.934Z" fill="#FEFDFD"/>
<path d="M236.512 70.041H241.059L243.483 71.2533L245.302 73.6779L245.605 74.2841V78.5271L244.089 81.5579L241.968 83.3763L239.543 84.5886L236.815 85.1947H232.572L230.148 84.8917L230.451 85.8009L235.603 86.407L235.906 87.6193L236.512 98.8331V104.288L232.876 107.622L228.329 110.653L223.177 113.381L218.328 115.199L215.6 115.805H213.782L216.206 120.351L219.843 128.231L221.056 131.262L222.571 135.808V136.414L225.602 134.899L228.632 133.687L231.966 131.565H232.572V130.959L235.3 129.141L239.24 125.504L239.846 124.898H240.755L240.452 126.11L237.725 128.838L233.482 132.171L229.239 134.899L224.693 137.021L222.874 137.627H221.662L219.54 131.565L216.206 123.988L213.176 117.927L212.266 118.23L208.326 124.898L204.993 131.262L201.356 140.051L199.537 146.416L198.022 153.083L197.416 158.539L196.203 158.842L195.9 158.236L196.507 151.871L197.719 146.719L198.931 142.173L199.537 140.657L199.234 139.142L195.597 133.384L192.264 127.928L191.051 128.534L187.717 133.081L185.596 137.324L184.081 141.567L183.171 144.294L181.959 143.991L182.262 141.87L184.081 136.717L186.505 132.171L189.233 128.534L191.96 125.807H192.567L195.9 130.959L198.931 135.808L200.143 137.93L200.75 138.233L199.234 131.565L196.203 120.351L194.991 116.411V114.896L194.385 114.593L199.84 113.987L204.69 112.168L208.023 110.047L211.054 107.622L215.297 103.379L219.237 98.227L222.874 92.4685L226.511 85.8009L230.451 77.3148L232.876 71.2533L236.512 70.041Z" fill="#F7F6F8"/>
<path d="M152.864 213.698L154.076 214.002L155.894 222.791L159.228 240.066L161.653 251.583L164.987 266.737L167.108 276.435L169.836 287.952L172.26 298.256L172.867 299.772L176.807 302.196L181.353 304.621L185.596 306.439L185.899 306.136L183.474 303.409L180.14 297.65L177.716 292.195L175.594 285.83L173.473 276.738V275.829L174.382 275.526L175.291 276.738L177.11 284.921L179.837 293.104L182.565 298.862L185.596 303.409L188.93 307.045L192.566 308.864L199.84 310.985L210.448 313.41L222.874 315.229L231.36 316.138L235.603 316.441H238.634L239.846 316.138L240.452 316.441V317.047L257.727 316.744L267.123 315.835L275.306 314.319L281.367 312.501L286.216 310.076L288.944 307.349L290.46 305.227L291.369 305.53L290.46 307.652L288.035 310.379L284.701 312.501L280.458 314.319L275.306 315.835L268.638 317.047L260.152 317.956L252.575 318.259H244.089L240.452 317.956V327.351L239.846 332.504L243.18 333.413L248.938 335.231L251.06 335.838L262.577 332.807L267.426 331.291L270.457 328.867L274.093 326.442L280.155 322.502L283.489 320.381L288.338 317.35L295.309 313.107H296.218L295.612 314.319L290.156 317.35L286.823 319.472L275.912 326.745L271.972 329.473L270.457 330.382L272.578 330.079L289.853 325.533L304.401 321.593L338.345 312.501H339.861V313.41L333.496 315.229L307.432 322.199L227.117 343.718L182.868 355.537L172.867 358.265H171.351L173.473 360.69L177.11 364.63L179.231 367.054L182.868 370.994L186.202 374.631L188.93 377.965L191.354 380.39L193.476 382.814L197.113 386.754L198.022 387.966V388.876L196.809 388.573L194.082 385.239L191.354 382.511L189.233 380.086L185.899 376.45L183.777 374.025L180.746 370.691L178.625 368.267L174.988 364.327L173.17 362.508L174.079 365.236L178.322 374.934L181.656 382.814L185.596 391.906L190.142 402.514L192.566 408.272L194.688 413.122L196.506 417.062L196.203 418.274H195.294L192.869 412.212L188.02 401.302L183.474 390.694L179.231 380.996L171.957 364.024L169.533 358.265L171.048 357.356L181.959 354.325L241.058 338.565L247.726 336.747L248.029 336.444L241.664 334.322L231.663 331.291L218.328 327.048L206.508 323.412L201.052 321.593L194.688 319.775L178.322 314.622L168.32 311.592L164.987 310.379L164.684 309.47L167.108 309.773L183.474 314.925L195.294 318.562L204.689 321.593L212.872 324.018L226.511 328.261L237.421 331.595L238.937 331.898L239.24 327.048V317.956L232.875 317.653L223.177 316.744L213.479 315.229L209.236 314.319L205.296 313.713L195.597 311.289L188.626 309.167L181.959 306.439L177.11 304.015L172.26 300.984L171.351 300.378L170.139 296.438L166.199 279.466L164.077 270.677L160.744 255.22L157.41 239.46L154.379 224.003L152.561 214.911L152.864 213.698Z" fill="#030406"/>
<path d="M94.0673 362.205H104.372L104.069 362.811L100.432 364.63L96.1888 367.66L91.9458 371.297L89.8242 373.419L87.7027 376.147L86.4904 377.965H85.8843L85.2781 379.48L83.4597 382.511L81.0351 387.057L79.2166 391.906L78.6105 394.331L77.7013 398.574V405.848L78.6105 409.485L80.1259 413.122L82.2474 416.455L84.9751 418.88V419.486H80.4289L77.0951 418.274L73.7613 416.152L71.6398 414.334L69.2152 411L67.6998 408.272L66.1844 403.12L65.8813 400.999V394.634L66.7906 389.179L68.609 383.723L71.6398 377.965L74.3674 374.328L77.0951 371.297L81.3382 367.963L85.5812 365.539L91.3396 363.417L93.7642 362.811L94.0673 362.205Z" fill="#FEFBFA"/>
<path d="M362.591 371.297L363.804 371.903L366.228 374.328L369.259 378.571L371.987 383.723L373.805 389.179L374.714 394.331V400.695L373.805 405.848L372.29 409.181L370.775 411.909L368.35 414.94L365.016 417.364L362.895 418.577L361.379 419.183L359.561 419.486H355.318L356.833 417.971L358.955 415.546L360.773 412.515L362.288 408.272L362.895 405.545V399.18L361.985 394.331L360.47 389.179L356.53 381.299L353.499 377.056L352.893 375.54H352.287L351.984 374.328L359.864 372.206L362.591 371.297Z" fill="#FEFBFB"/>
<path d="M169.533 358.871L170.442 359.78L174.382 368.873L179.837 381.602L184.99 393.422L189.839 404.635L192.567 410.697V412.212L192.263 411.606L191.051 411.303V410.394H190.445L190.142 409.788H187.717L183.171 410.697L181.959 411.303L180.14 414.031L178.928 415.546L176.504 417.365L174.382 418.577L171.654 420.092H169.23L168.927 419.486L172.564 418.274L175.897 416.152L178.625 413.425L181.05 409.181L182.262 405.242L182.565 403.423V396.149L181.353 391.3L179.231 386.451L177.11 383.42L174.382 380.389L170.745 377.662L165.896 375.237L161.653 374.025L155.288 373.419L154.682 371.297L153.773 364.63V362.508L165.896 359.78L169.533 358.871Z" fill="#FEFBFB"/>
<path d="M125.284 204.606L125.587 205.818L124.072 214.305L122.557 212.789L120.738 210.365L118.92 210.668L114.98 213.092L112.252 214.608L107.706 217.335L104.069 219.457L100.129 221.881L96.7952 223.7L92.8553 226.125L89.2184 228.246L86.7938 229.761L85.5815 229.458L85.8845 228.246L82.2476 220.972L81.6415 220.063L80.4292 219.457L80.7323 218.548V219.154L83.4599 218.245L96.7952 213.395L113.161 207.334L114.374 206.728L114.677 206.122L109.221 207.637L108.918 207.94H107.403L106.191 206.122L105.584 204.909L125.284 204.606Z" fill="#FEFBFA"/>
<path d="M367.441 368.873H368.653L368.047 370.085L364.713 370.691L367.441 374.025L369.562 376.753L371.987 380.692L374.411 386.754L375.624 391.906L375.927 394.331V400.998L375.018 405.848L373.199 410.394L370.472 414.334L368.35 416.455L364.107 419.183L361.379 420.395L360.167 420.698L339.558 421.001H326.223L325.92 419.789L351.984 419.486L354.409 418.577L357.742 415.243L359.258 412.818L360.773 408.878L361.682 404.029V400.392L360.773 394.634L358.652 388.269L355.015 381.299L351.984 377.056L350.772 375.54V374.934L343.801 377.056L340.164 377.965L334.103 379.783L329.253 380.996L295.006 390.694L289.551 392.209L282.277 394.331L237.422 407.06L234.391 407.666L233.179 407.969V407.06L239.543 404.938L255.606 400.392L311.372 384.632L330.769 379.177L346.529 374.631L359.561 370.994L367.441 368.873ZM362.592 371.297L351.984 374.328L352.287 375.54H352.893L353.499 377.056L356.53 381.299L360.47 389.179L362.289 395.543L362.895 399.18V405.545L361.682 410.394L359.561 414.637L357.136 417.668L355.318 419.183V419.486H359.561L361.682 418.88L364.107 417.971L367.441 415.546L368.956 414.031L371.078 411.606L373.199 407.363L373.805 405.848L374.715 400.695V394.331L373.805 389.179L371.987 383.723L368.956 377.965L365.622 373.722L363.198 371.297H362.592Z" fill="#060F17"/>
<path d="M92.8549 361.902H94.0672L93.7641 363.114L87.7026 364.933L82.8534 367.357L78.9135 370.085L75.8827 372.813L72.5489 377.056L69.8212 381.905L68.0028 386.148L66.7905 390.391L66.1843 394.634V400.998L67.0935 405.545L68.6089 409.485L70.7304 412.818L72.2458 414.637L75.8827 417.365L79.2165 418.88L80.4288 419.183L84.9749 419.486L83.4596 417.971L81.035 415.243L78.6104 410.394L78.0042 408.878L77.3981 405.848V398.574L78.3073 394.331L79.8227 389.179L83.1565 382.511L85.8842 377.965H86.4903L87.0965 376.449L91.3395 371.6L94.9764 368.266L98.6133 365.539L100.735 364.023L104.069 362.508L105.584 361.902H107.099L105.887 363.114L101.038 365.539L97.7041 367.66L95.5826 369.176L93.461 371.6L90.1272 374.934L86.7934 379.48L83.7626 384.632L81.6411 389.179L80.1258 393.725L79.2165 397.968L78.9135 400.695V403.726L79.5196 407.666L80.7319 411.303L82.2473 414.334L84.9749 417.365L87.0965 419.183L89.218 419.486L114.676 419.789V420.698L112.858 421.001H100.129L80.1258 420.698L76.4889 419.183L73.4581 417.365L70.4274 414.637L68.0028 411.303L66.1843 407.666L64.972 403.12L64.6689 401.302V393.422L65.8812 387.663L67.6997 382.814L70.4274 377.662L72.852 374.328L75.5796 371.297L77.7012 369.176L81.9442 366.145L88.6118 363.114L92.8549 361.902Z" fill="#071521"/>
<path d="M218.025 213.395L219.54 214.001L223.48 217.638L226.814 220.366L231.057 224.003L234.997 227.64L239.24 231.277L244.393 236.126L249.242 240.975L251.666 243.097L253.788 245.218L255.909 247.643L258.637 250.37L261.365 253.704L263.486 256.432L263.789 256.735L262.274 250.37L260.456 245.824L259.243 243.4L259.546 242.187L260.759 242.794L263.183 247.643L265.002 253.704L265.608 259.16L265.911 260.978L265.608 261.584H264.699L262.577 258.25L258.94 253.401L255.909 250.067L253.788 247.643L249.545 243.4V242.794H248.939V242.187L247.726 241.581L242.877 236.732L242.271 236.429V235.823L241.059 235.217L235.907 230.367L232.27 227.034L228.936 224.306L225.299 220.972L222.268 218.548L218.934 215.82L218.025 216.123L216.207 219.154L211.357 226.124L208.933 229.155L207.418 230.671H206.811V229.155L209.842 225.518L214.085 219.457L214.994 217.638L211.964 220.063L208.63 222.488L204.69 225.518L201.962 227.64L198.628 230.064L194.688 233.095L190.445 236.429L184.99 240.672L183.475 240.975L183.778 239.46L187.718 236.429L191.051 234.307L191.961 233.398H192.567V232.792L195.295 230.974L197.113 229.458H197.719V228.852L201.053 226.427H201.659V225.821L202.871 225.518V224.912L204.084 224.609V224.003L207.418 221.578L208.63 220.669H209.236V220.063L211.054 218.851L216.207 214.911L218.025 213.395Z" fill="#040509"/>
<path d="M119.525 210.062L121.041 210.365L124.375 214.911L128.315 220.366L130.739 224.003L134.073 228.852L140.134 237.944L144.681 245.218L148.318 251.583L151.045 256.735L150.136 249.764L148.621 244.612L147.408 242.187V241.278L148.621 241.581L150.136 244.006L151.954 249.461L152.561 254.31V261.887L152.257 262.493L151.045 262.19L149.227 257.038L146.196 250.977L141.953 244.006L139.528 240.066L137.407 236.732L131.345 227.64L127.405 221.881L123.465 216.426L120.132 211.577L118.616 212.183L114.676 214.608L109.524 217.638L97.0979 224.912L89.521 229.458L86.7934 231.277L85.5811 230.974L86.1872 229.761L89.218 227.943L93.461 225.518L97.704 222.791L101.038 220.972L104.069 219.154L109.827 215.82L112.555 214.001L115.889 212.183L119.525 210.062Z" fill="#04070A"/>
<path d="M212.873 115.199L214.085 116.412L218.934 126.11L220.449 130.05L221.359 131.868L222.571 135.808V136.414L225.602 134.899L228.632 133.687L231.966 131.565H232.572V130.959L235.3 129.141L239.24 125.504L239.846 124.898H240.755L240.452 126.11L237.725 128.838L233.482 132.171L229.239 134.899L224.693 137.021L222.874 137.627H221.662L219.54 131.565L216.206 123.988L213.176 117.927L212.266 118.23L208.326 124.898L204.993 131.262L201.356 140.051L199.537 146.416L198.022 153.084L197.416 158.539L196.203 158.842L195.9 158.236L196.507 151.871L197.719 146.719L198.931 142.173L199.537 140.657L199.234 139.142L195.597 133.384L192.264 127.928L191.051 128.535L187.717 133.081L185.596 137.324L184.081 141.567L183.171 144.294L181.959 143.991L182.262 141.87L184.081 136.718L186.505 132.171L189.233 128.535L191.96 125.807H192.567L195.9 130.959L198.931 135.808L200.143 137.93L200.75 138.233L201.356 135.808L204.69 128.535L208.023 122.17L210.751 117.927L212.266 115.502L212.873 115.199Z" fill="#091520"/>
<path d="M404.416 335.231L405.325 335.535L402.9 338.868L399.263 342.202L395.02 345.536L390.171 348.87L383.504 352.81L376.533 356.447L368.956 359.78L359.561 363.417L348.953 367.054L339.861 369.782L327.132 373.116L312.281 376.45L298.037 379.177L282.883 381.602L275.912 382.511H273.791V381.602L285.61 379.783L300.461 377.359L318.646 373.722L331.375 370.691L342.285 367.66L353.196 364.327L364.713 360.084L372.593 356.75L381.382 352.507L388.353 348.567L395.02 344.021L398.96 340.687L401.385 338.565L403.507 336.444L404.416 335.231Z" fill="#0B1846"/>
<path d="M290.46 279.769H291.369L291.066 281.284L288.338 285.527L285.307 289.77L282.277 293.71L279.246 297.044L277.124 299.468L273.791 302.196L271.366 304.015L267.123 306.439L262.577 307.954L258.94 308.561H255.303L250.757 307.651L245.605 305.833L239.543 302.802L235.906 300.378L232.572 297.953L228.633 294.922L225.299 291.892L222.874 289.77L219.843 287.042L215.297 282.496L214.994 281.284L216.51 281.587L220.753 285.83L223.177 287.952L225.299 290.073L228.633 292.801L233.482 296.741L238.937 300.378L243.18 302.802L248.635 305.227L254.091 306.742H260.758L265.911 305.227L269.851 303.105L274.094 300.075L279.549 294.619L281.974 291.588L285.307 287.042L288.338 282.496L290.157 280.072L290.46 279.769Z" fill="#0B1846"/>
<path d="M189.233 72.4656H191.657L195.294 73.9809L198.022 76.1025L199.234 77.9209V78.5271L198.628 78.8301H194.082L190.748 77.6178L188.93 77.0117L190.445 78.5271L192.566 79.4363L194.385 79.7394H199.537L199.84 80.6486L198.931 83.6793L196.506 85.8009L195.597 86.1039H192.869L189.233 84.2855L186.808 81.5578L185.596 79.1332V76.1025L186.808 73.6779L189.233 72.4656Z" fill="#F7F6F8"/>
<path d="M280.155 143.991L281.368 144.294L281.065 145.507L276.518 148.234L273.488 150.659L272.275 151.265V151.871L270.76 153.387L268.335 156.114L265.305 160.66L262.274 166.419L258.94 175.511L256.819 183.391L255.303 191.574L254.394 198.242L253.788 208.243L252.272 208.546V203.091L253.485 192.18L255 183.694L257.425 174.602L259.546 168.843L261.971 163.388L264.395 159.145L267.426 154.902L270.76 150.962L272.275 149.447H272.882V148.84L278.034 145.204L280.155 143.991Z" fill="#0B1846"/>
<path d="M66.7905 329.473L68.3059 329.776L73.4582 332.807L81.3381 336.747L87.7027 339.474L96.7949 342.808L101.947 344.627L112.555 347.657L122.556 350.082L138.619 353.113L140.741 353.719V354.325H137.71L127.405 352.507L115.586 349.779L106.493 347.354L95.8857 344.02L83.4596 339.171L72.852 334.019L67.3967 330.685L66.7905 329.473Z" fill="#0B1846"/>
<path d="M200.143 7.91064L201.659 8.51679L204.386 10.3352L206.811 11.5475L209.539 12.1537L216.206 12.7598L218.631 13.0629H231.36L231.966 12.1537L237.119 14.5783L239.543 16.6998L241.058 19.7306L241.362 21.2459V24.5798L240.149 28.5197L239.543 28.2166V22.4582L238.331 19.4275L235.603 17.0029L232.875 15.7906L228.632 14.8814L219.237 14.2752L212.569 13.9721L206.811 13.0629L203.477 11.8506L200.143 9.42602L199.84 8.21372L200.143 7.91064Z" fill="#FAEAE4"/>
<path d="M264.092 126.716L265.305 127.019V127.625L259.243 130.353L255.303 133.384L252.273 136.414L249.545 139.748L245.302 145.507L241.665 151.265L238.937 155.811L235.3 162.176L231.663 168.843L230.451 169.45L230.754 167.934L233.179 163.085L235.907 157.933L238.937 152.78L240.453 150.356L243.483 145.81L247.12 140.657L250.151 137.021L252.273 134.596L255 132.171L256.213 130.959L260.456 128.231L264.092 126.716Z" fill="#0D161F"/>
<path d="M244.696 29.429L247.423 29.732L250.151 30.9443L252.575 32.7628L254.394 34.8843L256.515 39.1273L257.425 42.7642L257.728 45.795V48.8257L257.122 53.0688L255.606 58.221L253.182 63.3733L250.757 67.0102L249.545 68.2225L250.151 66.7071L253.485 60.3426L255.303 54.8872L256.212 50.3411V43.9765L255 39.4304L252.879 35.4904L250.151 32.4597L247.726 30.9443L246.211 30.3382L243.18 30.0351V29.732L244.696 29.429Z" fill="#F6DDD2"/>
<path d="M113.161 206.122H114.676L114.373 207.031L108.312 209.455L83.4596 218.548L82.2473 219.154H80.7319L81.3381 217.941L84.975 216.426L99.2195 211.274L108.918 207.637L111.039 206.728L113.161 206.122Z" fill="#06121B"/>
<path d="M209.539 207.94H210.751V208.849L182.565 227.64L181.959 227.034L182.262 225.821L187.717 222.488L204.993 210.971L209.539 207.94Z" fill="#04111B"/>
<path d="M308.947 389.785H309.857L309.553 391.603L307.129 399.18L306.22 403.726L305.917 406.454V414.334L306.22 417.971L305.007 417.668L304.401 415.546L304.098 412.818V407.666L305.007 400.998L306.523 395.24L308.341 390.391L308.947 389.785Z" fill="#FEFDFD"/>
<path d="M299.855 389.785H301.067L300.764 391.3L298.34 398.574L297.127 404.635L296.824 407.666V413.121L297.127 417.971L295.915 417.668L295.309 414.031L295.006 408.575L295.915 401.605L297.734 394.634L299.552 390.088L299.855 389.785Z" fill="#FEFDFD"/>
<path d="M318.04 389.785H318.949L318.646 391.603L316.827 396.755L315.312 403.12L314.706 407.969V412.818L315.312 417.971H314.1L313.494 416.152L313.19 413.121V406.757L314.1 400.695L315.615 394.937L317.433 390.391L318.04 389.785Z" fill="#FEFDFD"/>
<path d="M157.713 389.785L158.926 390.088L160.441 393.725L161.956 398.574L163.169 404.938L163.472 408.272V412.515L162.865 417.061L162.562 417.971H161.35L161.653 413.424V406.454L161.047 401.605L159.229 394.937L157.41 390.088L157.713 389.785Z" fill="#FEFDFD"/>
<path d="M130.739 389.785L131.952 390.088L133.164 392.815L135.285 399.786L136.195 404.938L136.498 408.878V412.212L135.892 417.061L135.588 417.971L134.376 417.668L134.679 413.728V405.848L134.073 401.908L132.861 397.058L130.739 390.997V389.785Z" fill="#FEFDFD"/>
<path d="M121.647 389.785H122.859L124.375 393.118L126.193 399.483L127.405 406.757V413.728L126.799 417.668L125.89 418.274L125.284 417.668L125.89 412.515V407.666L124.981 401.302L122.859 393.725L121.647 390.694V389.785Z" fill="#FEFDFD"/>
<path d="M148.621 389.785H149.833L151.651 394.331L153.47 400.695L154.379 407.06V413.424L153.773 417.364L153.47 417.971H152.258L152.864 412.818V407.363L151.651 400.089L149.833 393.725L148.621 390.694V389.785Z" fill="#FEFDFD"/>
<path d="M124.678 205.818L125.284 206.121L124.375 212.486L124.072 214.304L122.557 212.789L120.738 210.364L119.829 209.758L119.526 209.455H117.404L116.798 209.152L116.495 207.637L117.404 206.728L120.132 206.121L124.678 205.818Z" fill="#F5E7DE"/>
<path d="M139.831 389.482L140.741 389.785L142.862 394.634L144.378 400.089L145.287 406.454V414.031L144.984 417.061L144.378 417.971L143.165 417.668L143.771 413.122V406.151L142.559 399.483L140.741 393.422L139.528 390.391L139.831 389.482Z" fill="#FEFDFD"/>
<path d="M290.157 391.906H291.066L290.763 394.028L288.944 400.089L288.035 404.938L287.732 408.575V411.909L288.338 417.668L287.429 417.971L286.823 417.668L286.217 412.818V407.363L286.823 402.211L288.338 395.846L289.248 392.815L290.157 391.906Z" fill="#FEFDFD"/>
<path d="M280.458 394.634H281.064L280.761 397.059L279.549 402.514L278.943 406.454V414.334L279.246 415.849V417.971L278.034 417.668L277.428 415.546L277.125 412.212V407.969L277.731 402.817L279.246 396.149L280.458 394.634Z" fill="#FEFDFD"/>
<path d="M195.598 8.21387H196.507L195.901 9.42617L194.688 11.5477L193.476 14.8815L192.87 18.2153V21.8522L193.779 26.0953L195.598 29.7322L197.416 31.8537L197.113 33.3691L196.507 33.6721L195.598 31.8537V31.2475L194.688 30.9445L193.173 28.5199L191.658 23.6707L191.354 21.8522L191.658 18.8215L191.961 14.8815L192.264 14.2754H192.87V12.1538L194.688 9.12309L195.598 8.21387Z" fill="#FBEFEA"/>
<path d="M67.397 137.323H95.583L97.7045 137.93L98.9168 138.839L94.9768 138.536L66.4878 138.233V137.627L67.397 137.323Z" fill="#FEFDFD"/>
<path d="M200.446 49.1289H201.356L201.053 50.6443L198.628 53.675L195.9 56.7058L192.567 59.4334L191.354 60.3427L191.657 61.858L193.173 63.6765V64.5857L191.96 64.2826L190.142 62.1611L189.839 60.3427L190.748 58.8273L194.385 56.0996L198.022 52.4627L200.446 49.1289Z" fill="#0B1846"/>
<path d="M208.327 46.0981L210.751 46.4012L214.388 47.6135L218.328 49.735L221.965 53.3719L222.874 55.4935L221.662 55.7965L219.237 52.7658L216.813 50.6443L212.57 48.5227L208.023 47.3104L208.327 46.0981Z" fill="#0B1846"/>
<path d="M200.143 7.91064L201.659 8.51679L204.386 10.3352L206.811 11.5475L209.539 12.1537L216.206 12.7598L218.631 13.366V13.6691H209.842L204.993 12.4568L201.962 10.9414L200.143 9.42602L199.84 8.21372L200.143 7.91064Z" fill="#FCF4F0"/>
<path d="M92.855 145.204L94.3704 145.507L96.4919 147.931L97.0981 149.144L96.795 150.659L96.4919 150.962L94.3704 150.659L92.552 148.537L91.9458 147.325L92.2489 145.507L92.855 145.204Z" fill="#E6D7D1"/>
<path d="M152.864 183.694L154.076 183.997L153.773 184.906L149.227 187.331L142.862 190.362H142.256L142.559 188.846L152.864 183.694Z" fill="#0B1846"/>
<path d="M158.319 201.878L159.532 202.485L161.047 204.303V205.212L159.532 204.909L159.228 204L157.107 204.606L152.561 207.031H151.045L151.348 205.818L156.198 203.394L158.319 201.878Z" fill="#0B1846"/>
<path d="M205.599 52.1597H207.114L208.024 53.675V55.4935L206.508 56.7058L204.993 56.4027L204.387 55.7966V53.372L205.599 52.1597Z" fill="#0B1846"/>
<path d="M192.567 46.0981H194.082L194.991 47.3104V49.432L193.476 50.6443L191.961 50.3412L191.354 49.735L191.658 47.0074L192.567 46.0981Z" fill="#0B1846"/>
<path d="M241.362 74.5872H242.271L241.968 75.7995L238.937 77.921L234.391 80.9517L233.179 81.2548L232.875 80.0425L238.634 76.4056L241.362 74.5872Z" fill="#0B1846"/>
<path d="M155.895 193.392H157.107L156.804 194.605L149.227 197.938L147.409 198.242L147.712 197.029L155.895 193.392Z" fill="#0B1846"/>
<path d="M193.476 38.8242H195.9L199.84 40.0365L201.659 41.2488L201.962 42.7642L200.446 42.4611L198.022 40.9457L195.597 40.3396L192.566 40.0365V39.1273L193.476 38.8242Z" fill="#03060A"/>
<path d="M255.303 56.7058L255.909 57.0089L255.303 58.8273L252.878 63.6765L250.757 67.0103L249.544 68.2226L250.151 66.7073L253.484 60.3427L254.697 57.0089L255.303 56.7058Z" fill="#F6DACD"/>
<path d="M125.284 204.606V205.515H106.796L107.706 206.425L108.009 207.334L108.918 207.94H107.402L106.19 206.122L105.584 204.909L125.284 204.606Z" fill="#F5E5DB"/>
<path d="M148.621 176.117L149.227 176.42L148.924 177.633L144.681 179.451L143.469 179.148V178.542L148.621 176.117Z" fill="#0B1846"/>
<path d="M257.122 49.7351H257.425L257.122 53.0689L255.909 57.0089H255L256.212 50.3413L257.122 49.7351Z" fill="#F6DDD2"/>
<path d="M120.738 209.758L123.162 210.364L124.072 210.971V214.304L122.556 212.789L120.738 210.364V209.758Z" fill="#FBF1EC"/>
<path d="M195.597 8.21387H196.507L195.9 9.42617L194.688 11.5477L193.476 14.8815L192.87 13.9723V12.1538L194.688 9.12309L195.597 8.21387Z" fill="#FBF1EC"/>
<path d="M256.819 44.5828H257.425L257.728 45.7951V48.8258L256.819 50.3412H256.516V44.8858L256.819 44.5828Z" fill="#F3CEBD"/>
<path d="M192.87 13.9722H193.173L192.87 18.2152L192.566 20.9429H192.263L191.657 18.8214L191.96 14.8814L192.87 13.9722Z" fill="#FAEDE7"/>
<path d="M157.713 204H159.228V205.212L155.895 205.818L154.985 206.122V205.515L157.713 204Z" fill="#F7F6F8"/>
<path d="M255.303 56.7058L255.909 57.0089L255.303 58.8273L254.697 59.4335H254.091L254.697 57.0089L255.303 56.7058Z" fill="#ECD3C8"/>
<path d="M251.666 63.9795L252.272 64.8887L249.848 68.2225L249.544 67.6164L251.666 63.9795Z" fill="#EEBCA5"/>
<defs>
<filter id="filter0_f_15_2" x="30" y="354.001" width="386" height="100" filterUnits="userSpaceOnUse" color-interpolation-filters="sRGB">
<feFlood flood-opacity="0" result="BackgroundImageFix"/>
<feBlend mode="normal" in="SourceGraphic" in2="BackgroundImageFix" result="shape"/>
<feGaussianBlur stdDeviation="10" result="effect1_foregroundBlur_15_2"/>
</filter>
</defs>
</svg>
