<svg width="40" height="40" viewBox="0 0 40 40" fill="none" xmlns="http://www.w3.org/2000/svg">
<circle cx="19.655" cy="19.655" r="19.655" fill="#00A027" fill-opacity="0.75"/>
<circle cx="19.655" cy="19.655" r="19.655" fill="#00A027"/>
<path d="M19.6672 9.82764C14.2561 9.82764 9.8512 14.2288 9.84924 19.6398C9.84826 21.3694 10.3013 23.058 11.1602 24.5459L9.82812 29.4827L14.9703 28.2677C16.4041 29.0499 18.0182 29.4606 19.6614 29.4615H19.6652C25.0753 29.4615 29.4783 25.0594 29.4812 19.6494C29.4832 17.0264 28.4632 14.5603 26.6098 12.7049C24.7563 10.8504 22.2931 9.82862 19.6672 9.82764ZM19.6652 11.7931C21.7644 11.7941 23.7371 12.6126 25.2201 14.0945C26.7031 15.5785 27.5177 17.5503 27.5157 19.6475C27.5138 23.9755 23.9933 27.496 19.6633 27.496C18.3533 27.4951 17.0557 27.1661 15.9127 26.5421L15.2505 26.1812L14.5192 26.354L12.5844 26.8108L13.0566 25.0564L13.2697 24.2695L12.8628 23.5631C12.1768 22.376 11.8138 21.0186 11.8147 19.6398C11.8167 15.3137 15.3382 11.7931 19.6652 11.7931ZM16.193 15.1099C16.0289 15.1099 15.7635 15.1713 15.5384 15.417C15.3134 15.6617 14.6785 16.2544 14.6785 17.4612C14.6785 18.6681 15.5576 19.8346 15.6805 19.9987C15.8023 20.1619 17.3774 22.7166 19.8706 23.6994C21.9423 24.5161 22.363 24.3549 22.8131 24.3136C23.2632 24.2733 24.2652 23.7215 24.4696 23.1485C24.674 22.5756 24.6745 22.0827 24.6135 21.9815C24.5526 21.8793 24.389 21.8184 24.1433 21.6955C23.8986 21.5727 22.6927 20.9805 22.4676 20.8989C22.2426 20.8174 22.0779 20.7761 21.9148 21.0218C21.7517 21.2675 21.2828 21.8184 21.1394 21.9815C20.9959 22.1456 20.8534 22.1677 20.6077 22.0448C20.362 21.921 19.572 21.6613 18.6345 20.826C17.9053 20.1764 17.4133 19.3749 17.2698 19.1292C17.1273 18.8845 17.2563 18.7501 17.3792 18.6282C17.4893 18.5182 17.623 18.3418 17.7458 18.1983C17.8677 18.0548 17.9099 17.9526 17.9915 17.7895C18.0731 17.6263 18.0313 17.4823 17.9704 17.3595C17.9094 17.2367 17.4323 16.0254 17.2141 15.5399C17.0303 15.132 16.8362 15.1226 16.6613 15.1157C16.5188 15.1098 16.3561 15.1099 16.193 15.1099Z" fill="white"/>
</svg>
