<svg width="190" height="37" viewBox="0 0 190 37" fill="none" xmlns="http://www.w3.org/2000/svg">
<path d="M37.9802 9H40.0222L41.6557 10.6336L43.0851 12.2671L45.5355 14.9217L47.3732 16.9636L49.6194 19.414L49.8236 19.6182L50.0278 9.40839H53.7033V27.5818H51.4571L50.0278 25.9482L47.5774 23.2937L45.7396 21.2517L43.4935 18.8014L41.8599 16.9636L41.6557 27.3776H37.9802V9Z" fill="white"/>
<path d="M13.0684 9H15.1103L18.1732 12.2671L19.6026 13.9007L22.053 16.5552L23.8907 18.5972L24.9117 19.8224L25.1159 9.40839H28.7914V27.5818H26.5453L22.053 22.6811L20.2152 20.6391L17.969 18.1888L16.9481 16.9636L16.7439 27.3776H13.0684V9Z" fill="white"/>
<path d="M113.125 9.40845H123.334V12.8798H117.004V16.3511H121.701V20.0266H117.004V23.7021H123.538V27.3776H113.125V9.40845Z" fill="white"/>
<path d="M130.073 9.40845H134.157L135.178 11.8588L138.036 19.6182L138.853 17.7805L141.916 9.61264L142.12 9.40845H146L145.387 11.4504L141.916 20.6392L139.262 27.5818H137.015L135.994 25.1315L131.502 13.2882L130.073 9.40845Z" fill="white"/>
<path fill-rule="evenodd" clip-rule="evenodd" d="M72.8981 9H69.2226L67.7932 9.40839L65.7513 10.4294L63.9135 12.0629L62.6884 14.1049L61.8716 16.5552V20.0266L62.6884 22.6811L63.7093 24.3147L65.7513 26.1524L67.5891 27.1734L70.2436 27.786H72.0814L74.1233 27.3776L76.5736 26.1524L78.2072 24.723L79.6366 22.4769L80.4534 19.8224V16.9636L80.2492 15.9426L79.4324 13.6965L78.003 11.6545L76.982 10.8378L74.9401 9.61259L72.8981 9ZM71.8771 12.6756H70.4477L69.4267 12.8797L68.2016 13.4923L66.568 15.3301L65.9554 17.1679V19.6182L66.1596 20.435L67.1806 22.0685L68.2016 23.0895L69.8351 23.9063H72.2855L73.919 23.2937L75.7568 21.2518L76.3694 19.2098V17.372L76.1652 16.5553L75.3484 14.7175L73.7148 13.2881L71.8771 12.6756Z" fill="white"/>
<path fill-rule="evenodd" clip-rule="evenodd" d="M97.8099 9.40845H88.6211V27.3776H96.9931L98.8309 26.9693L101.077 25.9483L102.915 24.3147L104.14 22.477L104.957 20.2308V16.5553L104.753 15.7385L103.936 13.6966L102.302 11.6546L100.056 10.2252L97.8099 9.40845ZM95.972 12.8797H92.5007V23.702H96.7888L97.4014 23.4978L99.0349 22.6811L100.26 21.2517L100.873 19.6181V16.9636L100.26 15.5342L99.0349 14.1049L97.8097 13.2881L95.972 12.8797Z" fill="white"/>
<path d="M0 9.40845H3.87971V27.3776H0V9.40845Z" fill="white"/>
<path d="M168.633 0H170.988V3.81212L168.745 4.03636L168.073 4.48485L167.736 5.49394L167.512 10.5394L167.176 12.3333L166.615 13.6788L165.606 14.8L164.821 15.3606L164.709 15.5848L165.27 15.8091L166.391 16.9303L167.064 18.2758L167.4 19.6212L167.624 22.5364L167.736 25.5636L168.073 26.5727L168.633 26.797L169.642 27.0212L170.988 27.1333V30.9455H168.521L166.615 30.6091L165.27 29.9364L164.373 29.0394L163.812 27.9182L163.588 26.9091L163.476 25.9L163.364 21.6394L163.139 19.8455L162.691 18.7242L162.242 18.1636L161.458 17.7152L160 17.3788V13.5667L161.794 13.1182L162.467 12.5576L163.139 11.2121L163.364 9.64242L163.476 5.2697L163.7 3.47576L164.148 2.24242L165.158 1.12121L166.055 0.560606L167.624 0.112121L168.633 0Z" fill="white"/>
<path d="M176.033 1.90601H179.621V5.49388H176.033V1.90601Z" fill="white"/>
<path d="M181.864 5.4939H184.442V7.96056L184.33 8.07268H181.864V5.4939Z" fill="white"/>
<path d="M181.864 11.1001H183.77V13.1183H181.864V11.1001Z" fill="white"/>
<path d="M187.357 1.2334H189.263V3.13946H187.357V1.2334Z" fill="white"/>
<path fill-rule="evenodd" clip-rule="evenodd" d="M175.361 6.05444H172.558V9.86656L173.567 9.97869L174.912 10.2029L175.473 10.6514L175.697 11.5484L175.809 14.5757L176.033 17.4908L176.37 18.7241L176.93 19.8454L177.603 20.6302L178.612 21.415V21.6393L178.052 21.9757L177.267 22.7605L176.594 23.8817L176.145 25.115L175.921 26.6847L175.697 31.6181L175.473 32.2908L175.136 32.6272L174.239 32.9635L172.558 33.0757V36.9999H175.361L176.818 36.6635L178.052 36.1029L178.836 35.4302L179.509 34.4211L179.845 33.2999L180.07 30.7211L180.182 26.7969L180.294 26.1241L180.742 24.8908L181.415 24.106L182.088 23.7696L183.433 23.5454L183.545 23.4332V19.6211L183.433 19.509L182.649 19.3969L181.415 18.9484L180.742 18.1635L180.294 16.9302L180.07 14.3514H178.388V11.7726H179.958V10.4272L179.509 8.63323L178.949 7.73626L178.052 6.95141L176.93 6.39081L175.361 6.05444ZM178.388 8.0728H176.482V9.97886H178.276L178.388 9.86674V8.0728Z" fill="white"/>
</svg>
