<svg width="20" height="20" viewBox="0 0 20 20" fill="none" xmlns="http://www.w3.org/2000/svg">
<g clip-path="url(#clip0_114_20)">
<path d="M18.4766 0.0273438C18.4219 0.0351562 14.4453 1.35156 9.63672 2.95312C0.191406 6.10156 0.613281 5.94922 0.3125 6.32812C0.09375 6.60547 0.0195312 6.82031 0.0195312 7.19141C0.0195312 7.49609 0.03125 7.54688 0.167969 7.82031C0.429688 8.35156 0.292969 8.26953 3.96484 10.1602L7.28516 11.8711L13.1914 5.96484C17.1094 2.05078 19.082 0.0507812 19.0508 0.03125C19.0039 0 18.6523 -0.00390625 18.4766 0.0273438Z" fill="white"/>
<path d="M14.0352 6.80859L8.12891 12.7148L9.83984 16.0352C11.7344 19.7148 11.6484 19.5703 12.1836 19.8359C12.4531 19.9688 12.5039 19.9805 12.8086 19.9805C13.1797 19.9805 13.3945 19.9062 13.6719 19.6875C14.0508 19.3867 13.8984 19.8086 17.0547 10.3438C19.5586 2.82812 19.9766 1.54297 19.9922 1.30469C20 1.15234 19.9922 0.996094 19.9727 0.964844C19.9453 0.914062 18.7734 2.06641 14.0352 6.80859Z" fill="white"/>
</g>
<defs>
<clipPath id="clip0_114_20">
<rect width="20" height="20" fill="white"/>
</clipPath>
</defs>
</svg>
